<svg width="382" height="307" viewBox="0 0 382 307" fill="none" xmlns="http://www.w3.org/2000/svg">
        <path opacity="0.1" d="M15.84 144.48C29.2705 202.119 204.617 271.006 262.257 257.576C319.896 244.146 350.488 95.2108 337.057 37.5712C323.627 -20.0684 229.703 29.0658 172.063 42.4963C80.8297 63.7544 2.40951 86.8399 15.84 144.48Z" fill="#13514E"/>
        <path d="M292.89 224.906C291.406 224.905 289.928 224.7 288.499 224.296L229.16 208.32L229.334 207.692L288.674 223.668C290.046 224.056 291.465 224.253 292.89 224.254C299.874 224.254 306.067 220.184 307.952 213.422L350.193 61.9029H350.192L350.284 61.5731C351.394 57.5583 350.876 53.2648 348.845 49.6332C346.813 46.0015 343.434 43.3278 339.446 42.1977L244.065 15.2946C240.072 14.1737 235.8 14.6916 232.186 16.7345C228.572 18.7774 225.911 22.1787 224.787 26.1923L221.473 38.0824L220.849 37.9063L224.163 26.0161C225.333 21.836 228.105 18.2936 231.868 16.1659C235.632 14.0382 240.082 13.499 244.24 14.6666L339.621 41.5697C343.723 42.732 347.209 45.4634 349.334 49.1791C351.459 52.8948 352.053 57.2995 350.989 61.4502L350.992 61.451L350.904 61.765L308.576 213.599C306.613 220.64 300.163 224.906 292.89 224.906Z" fill="#2F2E41"/>
        <path d="M225.183 41.4683L226.269 41.7749L229.611 42.7174L229.962 41.4585L228.71 41.1063L229.809 37.1636L232.452 34.8547L233.155 42.3619L231.21 41.8108L230.86 43.0696L235.853 44.4784L236.203 43.2196L235.143 42.9228L234.124 33.3937L239.312 28.8574L240.768 29.2683L241.118 28.0095L236.122 26.6007L235.771 27.8595L237.418 28.3226L230.821 33.5372L232.649 26.979L233.901 27.3312L234.251 26.0724L229.255 24.6636L228.905 25.9224L230.779 26.4507L226.839 40.578L224.965 40.0497L224.917 40.2193L224.716 40.9498L225.183 41.4683Z" fill="#007A73"/>
        <path d="M233.219 53.3715C231.971 53.915 230.753 54.5257 229.571 55.201C229.354 55.325 229.137 55.4521 228.923 55.5793V51.5453C228.924 50.0941 228.72 48.6501 228.316 47.2569C228.504 47.1394 228.696 47.0123 228.884 46.8851C229.056 46.7709 229.231 46.6535 229.403 46.5361C230.469 48.9244 231.747 51.212 233.219 53.3715Z" fill="#007A73"/>
        <path d="M292.64 213.584L291.186 213.174L290.836 214.43L295.831 215.839L296.181 214.583L294.536 214.119L301.132 208.902L299.302 215.463L298.054 215.111L297.704 216.367L302.699 217.776L303.049 216.52L301.175 215.992L305.115 201.861L306.988 202.39L307.338 201.134L302.343 199.725L301.993 200.981L303.242 201.333L302.142 205.277L299.501 207.586L298.799 200.08L300.744 200.629L301.094 199.373L296.1 197.964L295.75 199.22L296.811 199.519L297.83 209.047L292.64 213.584Z" fill="#007A73"/>
        <path d="M298.731 189.07C301.069 188.061 303.293 186.804 305.365 185.32C306.475 187.687 307.751 189.971 309.184 192.155C306.861 193.194 304.64 194.45 302.55 195.905C301.482 193.517 300.204 191.23 298.731 189.07Z" fill="#007A73"/>
        <path d="M254.99 121.17C254.99 121.17 253.35 131.884 252.863 132.424C252.375 132.964 256.267 145.577 256.267 145.577L268.745 138.259C268.745 138.259 271.173 124.718 271.973 124.266C272.772 123.814 254.99 121.17 254.99 121.17Z" fill="#FFB8B8"/>
        <path opacity="0.1" d="M254.99 121.17C254.99 121.17 253.35 131.884 252.863 132.424C252.375 132.964 256.267 145.577 256.267 145.577L268.745 138.259C268.745 138.259 271.173 124.718 271.973 124.266C272.772 123.814 254.99 121.17 254.99 121.17Z" fill="black"/>
        <path d="M264.643 131.543C271.448 131.543 276.963 125.995 276.963 119.151C276.963 112.307 271.448 106.759 264.643 106.759C257.839 106.759 252.323 112.307 252.323 119.151C252.323 125.995 257.839 131.543 264.643 131.543Z" fill="#FFB8B8"/>
        <path d="M259.304 138.305L258.23 137.325L253.405 130.417C253.405 130.417 252.851 130.05 252.326 131.934L251.8 133.818L247.266 135.587L237.234 178.82L264.081 186.393L275.137 143.11L269.944 137.581L269.369 134.913L261.352 138.206L259.304 138.305Z" fill="white"/>
        <path d="M228.923 183.25L229.571 183.433L271.382 195.225L285.362 148.705C285.362 148.705 282.055 146.077 279.468 145.685C279.468 145.685 275.123 140.735 273.253 140.206C271.379 139.678 269.307 135.031 269.307 135.031C269.307 135.031 267.118 142.881 263.358 147.916C259.597 152.951 253.048 170.411 253.048 170.411L251.2 138.39L253.275 130.338C252.068 131.057 250.97 131.945 250.013 132.976C248.551 134.594 244.819 135.911 244.819 135.911C244.819 135.911 234.989 138.56 233.251 138.749C231.517 138.935 230.716 139.388 230.716 139.388L229.571 147.309L228.923 151.797V183.25Z" fill="#2F2E41"/>
        <path d="M234.629 165.216C234.24 167.815 230.239 178.541 230.239 178.541L229.571 179.216L228.923 179.872V140.148C229.103 139.951 229.325 139.796 229.571 139.694C229.937 139.541 230.322 139.438 230.716 139.388L231.967 139.74C231.967 139.74 235.018 162.614 234.629 165.216Z" fill="#2F2E41"/>
        <path d="M263.109 179.006C263.109 179.006 269.245 167.866 273.89 170.531C278.535 173.196 271.089 180.579 271.089 180.579L263.109 179.006Z" fill="#FFB8B8"/>
        <path d="M244.116 174.665C244.116 174.665 232.341 171.005 232.079 171.947C231.816 172.889 228.592 178.415 229.528 178.679C230.465 178.943 237.733 180.654 237.645 180.968C237.557 181.282 241.128 182.967 241.128 182.967L244.116 174.665Z" fill="#FFB8B8"/>
        <path d="M267.072 139.441L259.578 139.737L258.017 139.297L251.769 135.125L249.699 141.354L257.58 140.867L259.14 141.307L265.62 145.845L267.072 139.441Z" fill="#007A73"/>
        <path d="M246.933 186.3L245.782 188.765L229.247 184.199L228.923 183.25V178.023L229.571 178.277L230.239 178.541L246.933 186.3Z" fill="#2F2E41"/>
        <path d="M247.551 175.634C247.551 175.634 243.668 173.861 243.58 174.175C243.492 174.489 238.281 183.519 239.53 183.871C240.779 184.223 245.199 186.486 245.199 186.486L247.551 175.634Z" fill="white"/>
        <path d="M283.178 148.087L285.364 148.704C285.364 148.704 286.612 149.056 286.711 151.116C286.81 153.176 288.505 162.799 287.706 163.251C286.906 163.703 286.682 163.301 287.131 164.105C287.58 164.909 287.98 164.683 287.493 165.223C287.005 165.763 285.887 183.06 282.264 188.811C278.64 194.563 277.54 197.301 276.291 196.949L243.925 187.82C243.925 187.82 245.366 175.017 246.702 175.055C248.039 175.094 269.929 179.913 269.929 179.913C269.929 179.913 278.408 147.081 283.178 148.087Z" fill="#2F2E41"/>
        <path d="M257.385 105.569L255.363 104.11C255.363 104.11 261.389 100.704 267.822 102.963L266.497 100.591C266.497 100.591 271.458 100.214 274.345 105.69C275.863 108.569 277.608 111.942 278.321 115.388L280.731 116.068L279.161 117.808L282.118 120.825L278.605 119.442C278.46 121.286 277.839 123.06 276.802 124.588L275.352 126.621C275.352 126.621 273.914 119.111 274.144 118.288L273.57 120.346C273.57 120.346 271.836 117.859 272.18 116.624L270.551 117.718L270.568 115.281L262.366 115.41L264.11 113.904L259.232 113.194L261.704 111.449C261.704 111.449 255.638 112.624 254.803 114.83C253.967 117.037 250.504 119.168 250.504 119.168L249.85 116.763C249.85 116.763 250.59 106.982 257.385 105.569Z" fill="#2F2E41"/>
        <path d="M253.149 110.027L253.245 109.605C254.182 105.502 246.975 97.8724 246.902 97.7957L246.774 97.6614L246.824 97.4822C246.967 96.9707 247.539 96.5165 252.55 97.609C254.501 98.0345 256.446 98.553 257.261 98.7753C257.17 96.4328 254.283 93.3292 254.252 93.2964L253.889 92.9094L254.397 92.7595C257.725 91.7782 261.62 95.0328 262.865 96.1852L264.946 88.7206L269.064 94.8386C271.592 91.032 275.249 91.1863 275.409 91.1951L275.922 91.2233L275.675 91.6772C273.943 94.8651 273.631 96.9591 273.613 97.9914C278.222 92.4836 282.376 92.9634 282.556 92.9874L283.186 93.071L282.749 93.5348C276.715 99.9479 276.005 108.408 275.998 108.492L275.977 108.777L253.149 110.027ZM247.62 97.613C248.895 99.002 254.404 105.271 253.948 109.33L275.382 108.157C275.558 106.648 276.645 99.4666 281.77 93.6447C280.374 93.7702 277.079 94.571 273.608 99.0326L273.21 99.5438L273.04 98.9177C273.013 98.819 272.433 96.5254 274.84 91.8662C273.737 91.9712 271.167 92.5523 269.352 95.6015L269.09 96.0405L265.193 90.2508L263.193 97.4254L262.801 97.0255C262.757 96.9809 258.576 92.77 255.1 93.2721C255.992 94.3173 258.127 97.0701 257.893 99.2343L257.852 99.6171L257.483 99.5131C253.389 98.3583 248.713 97.3729 247.62 97.613Z" fill="#007A73"/>
        <path d="M284.171 91.2692C283.95 91.2067 283.752 91.0796 283.602 90.9039C283.452 90.7282 283.358 90.5118 283.331 90.2821C283.303 90.0524 283.344 89.8197 283.448 89.6134C283.552 89.4071 283.715 89.2365 283.915 89.1232C284.116 89.0098 284.345 88.9588 284.575 88.9766C284.804 88.9944 285.023 89.0802 285.204 89.2232C285.385 89.3661 285.519 89.5598 285.591 89.7798C285.662 89.9997 285.667 90.236 285.605 90.4587C285.521 90.7572 285.323 91.0102 285.055 91.1622C284.786 91.3141 284.468 91.3526 284.171 91.2692ZM284.624 89.6446C284.526 89.617 284.422 89.6192 284.325 89.6509C284.229 89.6827 284.144 89.7426 284.081 89.8231C284.018 89.9036 283.98 90.001 283.972 90.1031C283.964 90.2051 283.987 90.3072 284.037 90.3964C284.087 90.4857 284.162 90.558 284.252 90.6044C284.343 90.6507 284.445 90.6689 284.546 90.6567C284.647 90.6445 284.743 90.6025 284.82 90.5359C284.897 90.4693 284.953 90.3812 284.981 90.2826C285.017 90.1505 285 90.0091 284.933 89.8895C284.867 89.7699 284.755 89.6818 284.624 89.6446Z" fill="#007A73"/>
        <path d="M276.097 88.9915C275.876 88.929 275.677 88.8019 275.528 88.6262C275.378 88.4505 275.284 88.2341 275.256 88.0044C275.229 87.7747 275.27 87.542 275.374 87.3357C275.478 87.1294 275.641 86.9588 275.841 86.8454C276.042 86.7321 276.271 86.6811 276.5 86.6989C276.73 86.7167 276.949 86.8025 277.13 86.9455C277.31 87.0884 277.445 87.2821 277.516 87.502C277.588 87.722 277.593 87.9582 277.531 88.181C277.447 88.4795 277.249 88.7325 276.98 88.8845C276.712 89.0364 276.394 89.0749 276.097 88.9915ZM276.55 87.3669C276.452 87.3393 276.348 87.3415 276.251 87.3732C276.155 87.405 276.069 87.4649 276.006 87.5454C275.944 87.6259 275.906 87.7233 275.898 87.8253C275.89 87.9274 275.913 88.0295 275.962 88.1187C276.012 88.208 276.087 88.2803 276.178 88.3266C276.269 88.373 276.371 88.3912 276.472 88.379C276.573 88.3668 276.668 88.3248 276.746 88.2582C276.823 88.1916 276.879 88.1035 276.906 88.0049C276.943 87.8728 276.926 87.7314 276.859 87.6118C276.792 87.4922 276.681 87.4041 276.55 87.3669Z" fill="#007A73"/>
        <path d="M263.821 87.7195C263.599 87.6571 263.401 87.5299 263.251 87.3542C263.102 87.1785 263.007 86.9622 262.98 86.7324C262.953 86.5027 262.994 86.27 263.098 86.0637C263.202 85.8574 263.364 85.6868 263.565 85.5735C263.765 85.4601 263.995 85.4091 264.224 85.4269C264.453 85.4447 264.672 85.5306 264.853 85.6735C265.034 85.8165 265.169 86.0102 265.24 86.2301C265.311 86.45 265.316 86.6863 265.254 86.909C265.171 87.2076 264.973 87.4606 264.704 87.6125C264.435 87.7645 264.118 87.8029 263.821 87.7195ZM264.274 86.0949C264.176 86.0673 264.072 86.0695 263.975 86.1013C263.878 86.133 263.793 86.193 263.73 86.2734C263.667 86.3539 263.629 86.4513 263.622 86.5534C263.614 86.6554 263.636 86.7575 263.686 86.8468C263.736 86.936 263.811 87.0084 263.902 87.0547C263.992 87.101 264.095 87.1192 264.196 87.1071C264.297 87.0949 264.392 87.0528 264.469 86.9862C264.547 86.9196 264.603 86.8315 264.63 86.7329C264.667 86.6008 264.65 86.4594 264.583 86.3398C264.516 86.2202 264.405 86.1321 264.274 86.0949Z" fill="#007A73"/>
        <path d="M244.222 97.0869C244.001 97.0245 243.802 96.8974 243.653 96.7217C243.503 96.546 243.409 96.3296 243.381 96.0999C243.354 95.8702 243.395 95.6374 243.499 95.4311C243.603 95.2249 243.766 95.0542 243.966 94.9409C244.167 94.8276 244.396 94.7766 244.625 94.7944C244.855 94.8122 245.074 94.898 245.255 95.0409C245.435 95.1839 245.57 95.3776 245.641 95.5975C245.713 95.8174 245.718 96.0537 245.656 96.2765C245.572 96.575 245.374 96.828 245.105 96.9799C244.837 97.1319 244.519 97.1704 244.222 97.0869ZM244.675 95.4623C244.577 95.4347 244.473 95.4369 244.376 95.4687C244.28 95.5005 244.194 95.5604 244.131 95.6409C244.069 95.7213 244.031 95.8188 244.023 95.9208C244.015 96.0229 244.038 96.125 244.087 96.2142C244.137 96.3034 244.212 96.3758 244.303 96.4221C244.394 96.4684 244.496 96.4867 244.597 96.4745C244.698 96.4623 244.793 96.4203 244.871 96.3537C244.948 96.2871 245.004 96.1989 245.031 96.1004C245.068 95.9682 245.051 95.8268 244.984 95.7072C244.917 95.5876 244.806 95.4995 244.675 95.4623Z" fill="#007A73"/>
        <path d="M251.801 91.7766C251.58 91.7142 251.382 91.5871 251.232 91.4114C251.082 91.2357 250.988 91.0193 250.96 90.7896C250.933 90.5599 250.974 90.3271 251.078 90.1208C251.182 89.9146 251.345 89.7439 251.545 89.6306C251.746 89.5172 251.975 89.4663 252.205 89.4841C252.434 89.5019 252.653 89.5877 252.834 89.7306C253.015 89.8736 253.149 90.0673 253.221 90.2872C253.292 90.5071 253.297 90.7434 253.235 90.9662C253.151 91.2647 252.953 91.5177 252.685 91.6696C252.416 91.8215 252.098 91.86 251.801 91.7766ZM252.254 90.152C252.156 90.1244 252.052 90.1266 251.955 90.1584C251.859 90.1902 251.773 90.2501 251.711 90.3306C251.648 90.411 251.61 90.5085 251.602 90.6105C251.594 90.7126 251.617 90.8147 251.667 90.9039C251.716 90.9931 251.791 91.0655 251.882 91.1118C251.973 91.1581 252.075 91.1764 252.176 91.1642C252.277 91.152 252.373 91.11 252.45 91.0434C252.527 90.9768 252.583 90.8886 252.61 90.7901C252.647 90.6579 252.63 90.5165 252.563 90.3969C252.497 90.2773 252.385 90.1892 252.254 90.152Z" fill="#007A73"/>
        <path d="M290.45 201.62L290.138 201.532L229.023 184.294L229.198 183.666L290.001 200.816L328.43 62.9685L242.739 38.7987L229.669 85.6828L229.044 85.5067L242.29 37.9945L242.601 38.0826L329.229 62.5168L329.142 62.8305L290.45 201.62Z" fill="#2F2E41"/>
        <path d="M86.5183 193.812C90.5477 201.328 99.0997 204.555 99.0997 204.555C99.0997 204.555 101.119 195.595 97.0891 188.078C93.0597 180.561 84.5077 177.335 84.5077 177.335C84.5077 177.335 82.4888 186.295 86.5183 193.812Z" fill="#2F2E41"/>
        <path d="M89.2884 191.339C96.5632 195.741 99.365 204.486 99.365 204.486C99.365 204.486 90.3719 206.092 83.0971 201.69C75.8223 197.287 73.0205 188.543 73.0205 188.543C73.0205 188.543 82.0136 186.936 89.2884 191.339Z" fill="#007A73"/>
        <path d="M228.885 46.8851C228.327 45.0366 227.44 43.3052 226.268 41.7749C225.851 41.228 225.399 40.7084 224.916 40.2193C223.435 38.7196 221.674 37.5297 219.734 36.7181C217.793 35.9065 215.712 35.4893 213.611 35.4906H114.551C110.319 35.4949 106.262 37.1878 103.269 40.1977C100.277 43.2076 98.5941 47.2886 98.5898 51.5453V209.235C98.5941 213.492 100.277 217.573 103.269 220.583C106.262 223.593 110.319 225.286 114.551 225.29H213.611C217.843 225.286 221.9 223.593 224.892 220.583C227.885 217.573 229.568 213.492 229.572 209.235V51.5453C229.574 49.9662 229.342 48.3957 228.885 46.8851ZM228.924 209.235C228.919 213.319 227.304 217.234 224.433 220.121C221.563 223.009 217.671 224.633 213.611 224.638H114.551C110.491 224.633 106.599 223.009 103.729 220.121C100.858 217.234 99.2432 213.319 99.2383 209.235V51.5453C99.2432 47.4618 100.858 43.547 103.729 40.6595C106.599 37.7721 110.491 36.1478 114.551 36.1428H213.611C215.69 36.1419 217.747 36.5677 219.656 37.3943C221.565 38.2208 223.287 39.4307 224.715 40.9498C224.874 41.1194 225.03 41.2922 225.182 41.4683C227.596 44.2642 228.924 47.8426 228.924 51.5453V209.235Z" fill="#2F2E41"/>
        <path d="M114.392 60.8328C114.374 60.7903 114.352 60.7517 114.332 60.7108C115.063 59.2715 115.432 57.6738 115.407 56.0577C115.407 51.0024 112.266 47.4717 107.769 47.4717C103.273 47.4717 100.132 51.0024 100.132 56.0577C100.132 61.113 103.273 64.6438 107.769 64.6438C108.831 64.6654 109.884 64.4508 110.853 64.0154C111.822 63.58 112.684 62.9345 113.377 62.1251C114.817 64.4686 117.6 64.7778 117.728 64.7907L117.88 63.2921C117.775 63.2807 115.304 62.9899 114.392 60.8328ZM107.769 63.1375C104.154 63.1375 101.629 60.2262 101.629 56.0577C101.629 51.8893 104.154 48.978 107.769 48.978C111.384 48.978 113.909 51.8893 113.909 56.0577C113.924 57.2461 113.691 58.4245 113.225 59.5168C110.99 58.1508 106.831 58.967 106.267 59.0866L106.575 60.5607C108.103 60.239 111.142 59.9809 112.465 60.8157C111.921 61.5499 111.212 62.1435 110.396 62.5473C109.579 62.951 108.679 63.1533 107.769 63.1375Z" fill="#007A73"/>
        <path d="M108.316 68.2268C107.829 67.7373 107.168 67.4624 106.479 67.4626C105.79 67.4629 105.13 67.7382 104.643 68.2281C104.156 68.718 103.882 69.3824 103.882 70.0752C103.882 70.768 104.155 71.4326 104.642 71.9228L108.316 75.6188L111.99 71.9228C112.476 71.4323 112.748 70.7681 112.748 70.0759C112.747 69.3837 112.473 68.72 111.987 68.2305C111.5 67.741 110.84 67.4657 110.152 67.4651C109.464 67.4644 108.804 67.7383 108.316 68.2268Z" fill="#007A73"/>
        <path d="M213.768 200.958C213.786 201 213.808 201.039 213.828 201.08C213.097 202.519 212.728 204.117 212.754 205.733C212.754 210.788 215.894 214.319 220.391 214.319C224.888 214.319 228.028 210.788 228.028 205.733C228.028 200.678 224.888 197.147 220.391 197.147C219.33 197.125 218.277 197.34 217.307 197.775C216.338 198.211 215.476 198.856 214.784 199.666C213.344 197.322 210.56 197.013 210.432 197L210.28 198.499C210.385 198.51 212.856 198.801 213.768 200.958ZM220.391 198.653C224.006 198.653 226.531 201.565 226.531 205.733C226.531 209.901 224.006 212.813 220.391 212.813C216.776 212.813 214.251 209.901 214.251 205.733C214.236 204.545 214.469 203.366 214.935 202.274C217.17 203.64 221.329 202.824 221.893 202.704L221.585 201.23C220.057 201.552 217.019 201.81 215.696 200.975C216.239 200.241 216.948 199.647 217.764 199.243C218.581 198.84 219.481 198.637 220.391 198.653V198.653Z" fill="#007A73"/>
        <path d="M219.845 193.564C220.332 194.053 220.993 194.327 221.681 194.327C222.369 194.326 223.029 194.051 223.516 193.561C224.003 193.071 224.277 192.408 224.277 191.715C224.278 191.023 224.005 190.358 223.519 189.868L219.845 186.172L216.17 189.868C215.684 190.358 215.412 191.023 215.412 191.715C215.413 192.408 215.686 193.071 216.173 193.561C216.66 194.051 217.32 194.326 218.008 194.327C218.697 194.327 219.357 194.053 219.845 193.564Z" fill="#007A73"/>
        <path d="M172.071 125.078C167.657 117.576 158.925 117.227 158.925 117.227C158.925 117.227 150.415 116.132 144.957 127.558C139.869 138.207 132.847 148.489 143.826 150.982L145.809 144.773L147.038 151.445C148.601 151.558 150.169 151.585 151.735 151.525C163.493 151.143 174.691 151.637 174.331 147.393C173.851 141.751 176.318 132.297 172.071 125.078Z" fill="#2F2E41"/>
        <path d="M155.787 150.638C155.808 151.482 155.802 152.373 155.385 153.106C154.558 154.559 152.539 154.777 151.325 155.922C150.048 157.127 149.903 159.082 149.842 160.841C149.779 162.681 149.725 164.582 150.392 166.296C150.801 167.24 151.318 168.133 151.932 168.957C152.674 170.032 153.422 171.103 154.177 172.168C154.58 172.768 155.03 173.335 155.521 173.865C156.873 175.25 158.728 176.017 160.581 176.564C161.777 176.918 163.069 177.193 164.257 176.809C165.042 176.501 165.766 176.053 166.394 175.487C167.277 174.782 168.174 174.062 168.814 173.128C169.811 171.673 170.087 169.852 170.294 168.098C170.904 162.909 171.142 157.683 171.005 152.46C171.03 151.891 170.929 151.323 170.708 150.798C170.093 149.591 168.446 149.333 167.578 148.294C166.837 147.406 166.806 146.138 166.813 144.978L166.829 142.025C166.855 141.776 166.805 141.525 166.686 141.305C166.578 141.187 166.449 141.091 166.304 141.023C166.16 140.955 166.003 140.917 165.844 140.91C164.019 140.605 162.169 140.481 160.32 140.538C158.821 140.584 155.945 140.458 154.649 141.298C153.472 142.06 154.945 144.165 155.218 145.348C155.584 147.088 155.775 148.86 155.787 150.638Z" fill="#A0616A"/>
        <path d="M159.229 145.566C165.783 145.566 171.096 140.222 171.096 133.629C171.096 127.037 165.783 121.692 159.229 121.692C152.675 121.692 147.361 127.037 147.361 133.629C147.361 140.222 152.675 145.566 159.229 145.566Z" fill="#A0616A"/>
        <path d="M154.341 163.197C153.586 162.068 152.965 160.854 152.49 159.581C152.066 158.291 151.955 156.849 152.458 155.588C151.176 154.84 149.435 155.446 148.501 156.604C147.567 157.762 147.281 159.315 147.199 160.804C147.116 162.293 147.204 163.804 146.882 165.26C146.169 168.48 143.524 171.128 143.327 174.422C143.134 177.662 145.343 180.484 146.429 183.541C147.088 185.446 147.363 187.464 147.239 189.477C147.204 190.126 147.164 190.867 147.619 191.329C147.857 191.537 148.137 191.689 148.441 191.774C153.685 193.63 159.349 193.79 164.906 193.932L174.084 194.166C174.639 194.232 175.202 194.138 175.705 193.893C176.528 193.385 176.638 192.246 176.652 191.275C176.773 182.908 176.419 174.542 176.065 166.182C175.937 163.152 175.807 160.104 175.168 157.14C175.005 156.385 174.739 155.546 174.046 155.213C173.46 154.931 172.764 155.113 172.154 155.34C169.309 156.404 166.851 158.308 165.1 160.802C163.217 163.498 162.29 166.732 160.447 169.449C159.11 171.42 158.336 169.702 157.445 168.25C156.411 166.565 155.376 164.881 154.341 163.197Z" fill="white"/>
        <path d="M152.921 155.794C152.688 155.961 152.458 156.137 152.237 156.323C151.411 157.008 150.671 157.792 150.033 158.658C148.976 160.107 148.135 161.703 147.536 163.396C146.46 166.364 145.993 169.514 145.545 172.638C145.35 173.789 145.245 174.954 145.231 176.121C145.299 180.413 147.821 184.388 147.825 188.683C147.825 188.846 147.821 189.006 147.812 189.169C147.782 189.872 147.699 190.572 147.565 191.263C147.38 192.27 147.115 193.265 146.852 194.256C146.191 196.741 145.477 199.318 144.187 201.499C144.057 201.721 143.918 201.94 143.775 202.152H134.697C134.769 201.933 134.843 201.718 134.914 201.499C136.461 196.891 138.006 192.285 139.551 187.679C140.024 186.27 140.497 184.855 140.831 183.407C141.213 181.619 141.474 179.807 141.613 177.983C141.969 174.204 142.204 170.416 142.316 166.621C142.358 165.258 142.388 163.866 142.825 162.574C143.236 161.522 143.778 160.527 144.44 159.613C145.377 158.195 146.314 156.776 147.251 155.357C147.773 154.568 148.321 153.756 149.125 153.264C149.796 152.849 150.593 152.699 151.3 152.351C151.745 152.097 152.172 151.812 152.578 151.499C153.635 150.746 154.876 149.954 155.787 150.723C155.935 150.847 156.062 150.993 156.163 151.157C156.215 151.237 156.262 151.321 156.303 151.408C157.178 153.313 154.098 154.956 152.921 155.794Z" fill="#2F2E41"/>
        <path d="M182.826 202.152H140.782C141.009 201.943 141.233 201.724 141.45 201.499C141.483 201.467 141.512 201.434 141.544 201.402C143.152 199.722 143.519 197.658 144.326 195.473C144.932 193.826 145.538 192.18 146.145 190.535C146.241 190.215 146.398 189.917 146.608 189.658C146.784 189.476 147.004 189.343 147.247 189.273C147.43 189.217 147.62 189.182 147.811 189.169C148.084 189.151 148.358 189.151 148.631 189.169C156.176 189.56 163.715 190.038 171.249 190.601C172.221 190.676 173.194 190.751 174.166 190.826C174.961 191.419 175.745 192.049 176.494 192.714C178.929 194.866 181.04 197.4 182.249 200.394C182.395 200.756 182.528 201.124 182.638 201.499C182.709 201.715 182.771 201.933 182.826 202.152Z" fill="#2F2E41"/>
        <path d="M170.12 124.355L161.493 119.809L149.579 121.669L147.114 132.62L153.25 132.383L154.964 128.359V132.316L157.796 132.206L159.439 125.802L160.466 132.62L170.531 132.413L170.12 124.355Z" fill="#2F2E41"/>
        <path d="M182.827 202.152H173.334C173.266 201.936 173.201 201.718 173.139 201.499C172.469 199.074 171.977 196.602 171.667 194.103C171.567 193.389 171.479 192.672 171.398 191.957C171.346 191.504 171.298 191.054 171.249 190.601C170.704 185.565 170.286 180.481 168.756 175.661C168.571 175.078 168.37 174.497 168.176 173.917C167.816 172.917 167.534 171.891 167.333 170.848C166.918 168.461 167.229 165.989 166.801 163.605C166.561 162.274 166.084 161.103 165.796 159.884C165.612 159.148 165.54 158.388 165.582 157.63C166.28 156.967 167.16 156.529 168.107 156.372C168.435 156.316 168.805 156.274 169.002 156.01C169.119 155.809 169.171 155.576 169.151 155.344C169.174 153.806 169.086 152.268 168.889 150.743C168.824 150.208 168.743 149.673 168.646 149.142C168.642 149.115 168.636 149.093 168.633 149.067C169.424 148.721 170.315 148.718 171.175 148.721C172.112 148.724 173.045 148.724 173.979 148.727C175.707 148.734 177.435 148.739 179.163 148.744C180.771 148.747 182.434 148.763 183.897 149.432C185.408 150.126 186.555 151.467 187.314 152.954C188.073 154.441 188.484 156.078 188.857 157.705C188.961 158.156 189.015 158.616 189.019 159.078C189.091 162.75 186.367 166.448 186.095 170.202C186.007 171.419 186.108 172.645 185.998 173.861C185.887 175.081 185.563 176.274 185.505 177.494C185.502 177.556 185.498 177.621 185.498 177.683C185.463 179.271 185.923 180.827 186.455 182.324C187.278 184.649 188.28 186.903 189.314 189.143C190.313 191.312 191.337 193.47 192.258 195.669C192.737 196.689 193.059 197.776 193.215 198.894C193.317 199.792 193.146 200.701 192.725 201.499C192.617 201.697 192.488 201.882 192.339 202.051L192.333 202.057C192.304 202.09 192.274 202.122 192.245 202.152H182.827Z" fill="#2F2E41"/>
        <path d="M191.869 198.806C191.829 199.24 191.712 199.663 191.522 200.055C191.506 200.094 191.49 200.13 191.474 200.169C191.285 200.616 191.094 201.056 190.896 201.5C190.799 201.715 190.702 201.933 190.601 202.152H185.232C185.427 201.947 185.607 201.729 185.771 201.5C186.594 200.348 187.071 198.949 187.91 197.707C188.024 197.537 188.156 197.379 188.303 197.237C189.648 195.926 191.953 196.194 191.869 198.806Z" fill="#FFB8B8"/>
        <path d="M195.363 202.152C195.432 201.937 195.489 201.72 195.535 201.499C195.574 201.327 195.606 201.157 195.632 200.984C195.804 199.846 195.801 198.682 196.07 197.563C196.449 195.962 197.587 194.067 196.65 192.72C197.379 192.57 198.067 192.26 198.664 191.814C199.221 191.325 199.545 190.477 199.208 189.811C198.874 189.156 197.97 188.722 198.093 187.995C198.154 187.764 198.263 187.549 198.411 187.362C198.902 186.582 199.157 185.674 199.142 184.751C199.128 183.827 198.845 182.928 198.33 182.164C198.035 181.74 197.672 181.368 197.402 180.925C197.108 180.382 196.883 179.805 196.731 179.206C195.795 176.172 194.415 173.294 192.637 170.668C192.242 170.163 191.936 169.594 191.732 168.986C191.612 168.326 191.588 167.653 191.661 166.987C191.725 164.352 190.746 161.778 189.336 159.561C189.232 159.398 189.125 159.238 189.018 159.078C187.657 157.06 185.967 155.289 184.285 153.531C183.591 153.857 182.978 154.069 182.618 154.747C182.442 155.13 182.333 155.54 182.297 155.961C181.837 159.189 181.438 162.437 181.127 165.682C180.971 167.322 180.812 168.976 180.997 170.613C181.182 172.25 181.736 173.89 182.839 175.107C183.529 175.87 184.405 176.437 185.154 177.142C185.274 177.256 185.39 177.373 185.504 177.494C186.044 178.072 186.523 178.705 186.934 179.382C188.73 182.302 189.563 185.718 189.313 189.143C189.268 189.76 189.187 190.374 189.07 190.982C188.928 191.852 188.636 192.691 188.208 193.461C187.867 194.025 187.42 194.517 187.112 195.101C186.804 195.685 186.658 196.412 186.963 196.996C187.42 196.995 187.873 197.077 188.302 197.237C189.311 197.629 190.188 198.302 190.831 199.177C191.067 199.492 191.282 199.824 191.473 200.169C191.713 200.599 191.927 201.043 192.115 201.499C192.192 201.679 192.267 201.865 192.338 202.05C192.355 202.083 192.368 202.117 192.377 202.152H195.363Z" fill="#2F2E41"/>
        <path d="M168.856 145.414L161.981 148.43L160.368 148.59L153.039 146.988L153.362 153.548L160.527 150.213L162.141 150.053L169.817 151.91L168.856 145.414Z" fill="#007A73"/>
        <path d="M182.638 201.499C182.71 201.715 182.771 201.933 182.826 202.152H185.232C185.426 201.947 185.606 201.729 185.77 201.499H182.638ZM119.096 58.3346V202.152H208.741V58.3346H119.096ZM208.092 201.499H119.744V58.9868H208.092V201.499ZM182.638 201.499C182.71 201.715 182.771 201.933 182.826 202.152H185.232C185.426 201.947 185.606 201.729 185.77 201.499H182.638Z" fill="#2F2E41"/>
        <path d="M148.55 121.253L148.606 120.973C148.622 120.889 150.209 112.551 146.121 104.737L145.825 104.172L146.454 104.263C146.634 104.289 150.762 104.955 153.722 111.51C153.981 110.511 154.243 108.41 153.431 104.87L153.315 104.366L153.817 104.478C153.973 104.513 157.535 105.357 158.948 109.709L164.555 104.937V112.689C166.063 111.918 170.687 109.842 173.628 111.691L174.077 111.973L173.623 112.247C173.585 112.27 169.972 114.475 169.256 116.705C170.1 116.712 172.112 116.742 174.105 116.862C179.223 117.171 179.652 117.763 179.652 118.295V118.481L179.493 118.575C179.402 118.629 170.415 124.018 170.216 128.223L170.195 128.656L148.55 121.253ZM168.844 117.355H168.461L168.524 116.976C168.88 114.828 171.674 112.757 172.814 111.993C169.602 110.566 164.446 113.485 164.391 113.516L163.906 113.794V106.343L158.6 110.859L158.466 110.366C157.536 106.937 155.218 105.679 154.184 105.278C155.251 110.418 154.077 112.469 154.025 112.557L153.693 113.114L153.447 112.513C151.302 107.275 148.345 105.609 147.034 105.109C150.406 112.106 149.525 119.316 149.29 120.817L169.613 127.768C170.263 123.735 177.251 119.196 178.85 118.204C177.863 117.676 173.096 117.355 168.844 117.355Z" fill="#007A73"/>
        <path d="M144.196 101C144.196 100.768 144.264 100.542 144.392 100.35C144.52 100.158 144.702 100.008 144.914 99.9191C145.127 99.8306 145.361 99.8074 145.586 99.8526C145.812 99.8977 146.019 100.009 146.182 100.173C146.344 100.336 146.455 100.545 146.5 100.772C146.545 100.999 146.522 101.234 146.434 101.447C146.346 101.661 146.197 101.844 146.005 101.972C145.814 102.101 145.589 102.17 145.359 102.17C145.051 102.169 144.755 102.046 144.537 101.827C144.319 101.607 144.197 101.31 144.196 101ZM144.845 101C144.845 101.102 144.875 101.202 144.931 101.287C144.988 101.372 145.068 101.439 145.162 101.478C145.256 101.517 145.36 101.527 145.46 101.507C145.559 101.487 145.651 101.438 145.723 101.366C145.795 101.293 145.844 101.201 145.864 101.101C145.884 101 145.874 100.896 145.835 100.802C145.796 100.707 145.73 100.626 145.645 100.57C145.56 100.513 145.461 100.482 145.359 100.482C145.223 100.482 145.092 100.537 144.996 100.634C144.899 100.731 144.845 100.863 144.845 101Z" fill="#007A73"/>
        <path d="M152.584 101C152.584 100.768 152.652 100.542 152.78 100.35C152.908 100.158 153.089 100.008 153.302 99.9191C153.514 99.8306 153.748 99.8074 153.974 99.8526C154.199 99.8977 154.407 100.009 154.569 100.173C154.732 100.336 154.843 100.545 154.888 100.772C154.932 100.999 154.909 101.234 154.821 101.447C154.733 101.661 154.584 101.844 154.393 101.972C154.202 102.101 153.977 102.17 153.747 102.17C153.439 102.169 153.143 102.046 152.925 101.827C152.707 101.607 152.584 101.31 152.584 101ZM153.232 101C153.232 101.102 153.263 101.202 153.319 101.287C153.376 101.372 153.456 101.439 153.55 101.478C153.644 101.517 153.747 101.527 153.847 101.507C153.947 101.487 154.039 101.438 154.111 101.366C154.183 101.293 154.232 101.201 154.252 101.101C154.271 101 154.261 100.896 154.222 100.802C154.183 100.707 154.117 100.626 154.033 100.57C153.948 100.513 153.849 100.482 153.747 100.482C153.611 100.482 153.48 100.537 153.383 100.634C153.287 100.731 153.233 100.863 153.232 101Z" fill="#007A73"/>
        <path d="M164.746 103.109C164.746 102.878 164.814 102.652 164.942 102.459C165.07 102.267 165.251 102.117 165.464 102.028C165.676 101.94 165.91 101.917 166.136 101.962C166.361 102.007 166.569 102.118 166.731 102.282C166.894 102.446 167.005 102.654 167.05 102.881C167.094 103.108 167.071 103.343 166.983 103.557C166.895 103.771 166.746 103.953 166.555 104.082C166.364 104.21 166.139 104.279 165.909 104.279C165.601 104.279 165.305 104.155 165.087 103.936C164.869 103.717 164.746 103.419 164.746 103.109ZM165.395 103.109C165.395 103.212 165.425 103.312 165.481 103.397C165.538 103.482 165.618 103.548 165.712 103.587C165.806 103.627 165.91 103.637 166.009 103.617C166.109 103.597 166.201 103.548 166.273 103.475C166.345 103.403 166.394 103.311 166.414 103.21C166.433 103.11 166.423 103.006 166.384 102.911C166.345 102.817 166.279 102.736 166.195 102.679C166.11 102.622 166.011 102.592 165.909 102.592C165.773 102.592 165.642 102.646 165.545 102.743C165.449 102.84 165.395 102.972 165.395 103.109Z" fill="#007A73"/>
        <path d="M181.101 117.451C181.101 117.22 181.169 116.993 181.297 116.801C181.424 116.609 181.606 116.459 181.818 116.37C182.031 116.282 182.265 116.259 182.49 116.304C182.716 116.349 182.923 116.46 183.086 116.624C183.248 116.787 183.359 116.996 183.404 117.223C183.449 117.45 183.426 117.685 183.338 117.899C183.25 118.112 183.101 118.295 182.91 118.424C182.718 118.552 182.494 118.621 182.264 118.621C181.955 118.62 181.66 118.497 181.442 118.278C181.224 118.058 181.101 117.761 181.101 117.451ZM181.749 117.451C181.749 117.553 181.779 117.653 181.836 117.739C181.892 117.824 181.973 117.89 182.067 117.929C182.161 117.968 182.264 117.979 182.364 117.959C182.464 117.939 182.555 117.889 182.627 117.817C182.699 117.745 182.748 117.652 182.768 117.552C182.788 117.452 182.778 117.348 182.739 117.253C182.7 117.158 182.634 117.078 182.549 117.021C182.465 116.964 182.365 116.933 182.264 116.933C182.127 116.934 181.996 116.988 181.9 117.085C181.803 117.182 181.749 117.314 181.749 117.451Z" fill="#007A73"/>
        <path d="M175.229 110.28C175.229 110.049 175.298 109.822 175.425 109.63C175.553 109.438 175.735 109.288 175.947 109.199C176.16 109.111 176.394 109.087 176.619 109.133C176.845 109.178 177.052 109.289 177.215 109.453C177.378 109.616 177.488 109.825 177.533 110.052C177.578 110.279 177.555 110.514 177.467 110.728C177.379 110.941 177.23 111.124 177.039 111.253C176.847 111.381 176.622 111.45 176.392 111.45C176.084 111.449 175.788 111.326 175.57 111.107C175.352 110.887 175.23 110.59 175.229 110.28ZM175.878 110.28C175.878 110.382 175.908 110.482 175.965 110.568C176.021 110.653 176.102 110.719 176.196 110.758C176.29 110.797 176.393 110.808 176.493 110.788C176.593 110.768 176.684 110.718 176.756 110.646C176.828 110.574 176.877 110.481 176.897 110.381C176.917 110.281 176.907 110.177 176.868 110.082C176.829 109.987 176.763 109.907 176.678 109.85C176.594 109.793 176.494 109.762 176.392 109.762C176.256 109.763 176.125 109.817 176.029 109.914C175.932 110.011 175.878 110.143 175.878 110.28Z" fill="#007A73"/>
    </svg>