<svg width="368" height="163" viewBox="0 0 368 163" fill="none" xmlns="http://www.w3.org/2000/svg">
<path d="M109.481 133.476C108.215 143.398 103.563 152.476 98.6003 161.221C98.4362 161.518 98.2674 161.812 98.0944 162.109H46.5122C45.4689 161.838 44.4391 161.541 43.4137 161.221C37.5876 159.445 32.0874 156.736 27.1267 153.2C8.14963 139.514 0.847248 113.654 4.14557 90.4812C6.19648 76.0844 12.5087 61.3856 24.8005 53.6318C31.2905 49.5305 39.627 48.1975 47.0981 49.7216C47.2936 49.7571 47.4889 49.8015 47.6885 49.8415C54.1163 51.2901 59.8426 54.8893 63.1011 60.6879C68.9605 71.1078 65.4715 84.016 62.5906 95.6133C59.7185 107.211 58.1602 121.092 66.4969 129.646C63.7446 121.536 66.4614 111.863 73.0357 106.38C78.003 102.243 84.9191 100.692 91.2271 101.976C91.8307 102.105 92.4257 102.252 93.0116 102.43C94.4277 102.845 95.7931 103.417 97.0822 104.136C106.915 109.632 110.897 122.292 109.481 133.476Z" fill="#13514E"/>
<path d="M78.8961 161.221C80.3253 161.554 81.7591 161.847 83.2019 162.109H75.4024C74.3813 161.834 73.3648 161.541 72.3573 161.221C70.1421 160.528 67.961 159.732 65.814 158.835C57.2022 155.218 49.2695 149.788 43.2679 142.563C40.3327 139.062 37.9358 135.143 36.1565 130.934C34.227 126.177 33.0008 121.164 32.5166 116.053C31.4289 105.567 32.5387 94.7914 34.6117 84.4916C36.751 73.8163 40.2044 63.4477 44.8927 53.623C45.4564 52.4456 46.0394 51.2755 46.6416 50.1127C46.6831 50.017 46.7458 49.932 46.825 49.8643C46.9042 49.7965 46.9979 49.7477 47.0988 49.7217C47.3037 49.682 47.516 49.7251 47.6892 49.8417C47.8971 49.9611 48.0512 50.1558 48.1198 50.3857C48.1884 50.6156 48.1661 50.863 48.0577 51.077C43.2238 60.5129 39.5595 70.5047 37.1464 80.8302C34.7849 90.9034 33.4442 101.443 33.9014 111.801C34.3364 121.479 36.8624 130.997 42.5931 138.91C47.8268 146.135 55.0536 151.832 63.0485 155.711C68.1088 158.134 73.4245 159.982 78.8961 161.221Z" fill="white"/>
<path d="M96.0126 162.109H93.7131C93.4556 161.816 93.207 161.518 92.9629 161.221C87.7253 154.851 84.177 147.261 82.6464 139.155C80.7875 129.038 82.2336 118.591 86.7703 109.361C88.036 106.773 89.5274 104.302 91.2271 101.976C91.8308 102.105 92.4258 102.252 93.0117 102.43C88.5409 108.359 85.5337 115.262 84.2356 122.576C83.0775 129.43 83.4626 136.455 85.3626 143.141C87.2626 149.827 90.6296 156.003 95.218 161.221C95.4753 161.518 95.7417 161.816 96.0126 162.109Z" fill="white"/>
<path d="M303.158 154.552C303.492 157.171 304.72 159.567 306.03 161.875C306.073 161.953 306.118 162.031 306.163 162.109H319.777C320.052 162.038 320.324 161.959 320.594 161.875C322.132 161.406 323.584 160.691 324.893 159.758C329.901 156.146 331.829 149.321 330.958 143.205C330.417 139.406 328.751 135.526 325.507 133.48C323.745 132.406 321.643 132.038 319.622 132.448C319.57 132.457 319.519 132.469 319.466 132.48C318.625 132.643 317.827 132.982 317.126 133.475C316.425 133.969 315.836 134.605 315.399 135.342C313.852 138.092 314.773 141.499 315.533 144.56C316.291 147.621 316.703 151.284 314.502 153.541C314.825 152.597 314.89 151.584 314.692 150.607C314.494 149.629 314.039 148.721 313.374 147.978C312.71 147.234 311.859 146.681 310.911 146.376C309.962 146.07 308.949 146.023 307.976 146.239C307.816 146.273 307.659 146.312 307.505 146.359C307.131 146.468 306.771 146.619 306.43 146.809C303.835 148.26 302.785 151.601 303.158 154.552Z" fill="#13514E"/>
<path d="M311.23 161.875C310.853 161.963 310.475 162.04 310.094 162.109H312.152C312.422 162.037 312.69 161.959 312.956 161.875C313.54 161.692 314.116 161.482 314.683 161.245C316.981 160.311 319.022 158.838 320.633 156.951C321.408 156.027 322.04 154.992 322.51 153.882C323.019 152.626 323.343 151.303 323.47 149.954C323.704 147.166 323.518 144.358 322.918 141.625C322.353 138.807 321.442 136.071 320.204 133.478C320.055 133.167 319.902 132.858 319.743 132.551C319.732 132.526 319.715 132.504 319.694 132.486C319.673 132.468 319.649 132.455 319.622 132.448C319.568 132.438 319.512 132.449 319.466 132.48C319.411 132.511 319.371 132.563 319.352 132.623C319.334 132.684 319.34 132.749 319.369 132.806C320.645 135.296 321.612 137.933 322.249 140.658C322.905 143.331 323.193 146.081 323.105 148.832C323.058 151.391 322.26 153.879 320.811 155.987C319.402 157.885 317.548 159.408 315.413 160.421C314.077 161.06 312.674 161.548 311.23 161.875Z" fill="white"/>
<path d="M306.712 162.109H307.319C307.387 162.032 307.452 161.953 307.517 161.875C308.899 160.193 309.836 158.191 310.24 156.051C310.73 153.381 310.348 150.624 309.151 148.188C308.817 147.505 308.423 146.853 307.975 146.239C307.816 146.273 307.659 146.312 307.504 146.359C308.684 147.923 309.477 149.745 309.82 151.676C310.126 153.484 310.024 155.339 309.523 157.103C309.021 158.868 308.133 160.498 306.922 161.875C306.854 161.953 306.783 162.032 306.712 162.109Z" fill="white"/>
<path d="M180.453 94.4267H137.847L137.395 81.3138C137.375 80.7454 137.479 80.1794 137.699 79.655C137.919 79.1305 138.25 78.66 138.669 78.2758C139.088 77.8915 139.585 77.6027 140.126 77.4293C140.667 77.2558 141.239 77.2018 141.803 77.2709L166.598 80.3099H166.601C170.276 80.3198 173.798 81.7878 176.395 84.3922C178.992 86.9966 180.451 90.5251 180.453 94.2045V94.4267Z" fill="#007A73"/>
<path d="M161.464 47.9131H131.748C131.352 47.913 130.961 47.9908 130.596 48.1422C130.231 48.2935 129.899 48.5154 129.619 48.7951C129.34 49.0748 129.118 49.4069 128.967 49.7724C128.816 50.1379 128.738 50.5297 128.738 50.9253V80.6705C128.738 81.0661 128.816 81.4579 128.967 81.8234C129.118 82.1889 129.34 82.521 129.619 82.8007C129.899 83.0804 130.231 83.3023 130.596 83.4536C130.961 83.605 131.352 83.6828 131.748 83.6827H161.464C161.859 83.6828 162.25 83.605 162.615 83.4537C162.981 83.3023 163.312 83.0804 163.592 82.8007C163.871 82.521 164.093 82.1889 164.244 81.8234C164.395 81.4579 164.473 81.0661 164.473 80.6705V50.9253C164.473 50.5297 164.395 50.1379 164.244 49.7724C164.093 49.4069 163.871 49.0748 163.592 48.7951C163.312 48.5154 162.981 48.2935 162.615 48.1422C162.25 47.9908 161.859 47.913 161.464 47.9131Z" fill="#89A8A7"/>
<path d="M154.771 70.1555L140.741 72.8904C139.909 73.0516 139.046 72.8759 138.344 72.4016C137.641 71.9274 137.154 71.1934 136.991 70.3607L135.913 64.817C135.752 63.9839 135.927 63.1209 136.401 62.4173C136.875 61.7137 137.608 61.2269 138.44 61.0638L152.47 58.3289C153.303 58.1677 154.165 58.3434 154.868 58.8177C155.571 59.2919 156.057 60.0259 156.22 60.8586L157.298 66.4023C157.459 67.2353 157.284 68.0983 156.81 68.802C156.336 69.5056 155.603 69.9923 154.771 70.1555Z" fill="#3F3D56"/>
<path d="M151.964 63.6062L141.256 65.6934C141.061 65.7316 140.858 65.6903 140.692 65.5787C140.527 65.467 140.412 65.2942 140.374 65.0982C140.336 64.9021 140.377 64.6989 140.489 64.5333C140.6 64.3677 140.773 64.2532 140.969 64.2151L151.676 62.1279C151.872 62.0897 152.075 62.131 152.24 62.2426C152.406 62.3542 152.52 62.5271 152.558 62.7231C152.597 62.9192 152.555 63.1223 152.444 63.288C152.332 63.4536 152.16 63.568 151.964 63.6062Z" fill="white"/>
<path d="M149.883 66.6971L144.344 67.7766C144.149 67.8148 143.946 67.7735 143.78 67.6619C143.615 67.5503 143.5 67.3774 143.462 67.1814C143.424 66.9853 143.465 66.7822 143.577 66.6166C143.688 66.4509 143.861 66.3365 144.057 66.2983L149.595 65.2187C149.692 65.1998 149.792 65.2002 149.889 65.2199C149.985 65.2396 150.077 65.2782 150.159 65.3334C150.241 65.3887 150.311 65.4596 150.366 65.542C150.421 65.6245 150.458 65.7169 150.477 65.8139C150.496 65.911 150.496 66.0108 150.476 66.1078C150.456 66.2047 150.418 66.2968 150.363 66.3788C150.307 66.4608 150.237 66.5311 150.154 66.5857C150.072 66.6403 149.98 66.6781 149.883 66.6971Z" fill="white"/>
<path d="M164.473 50.9253V54.8788H128.738V50.9253C128.738 50.5297 128.816 50.1379 128.967 49.7724C129.118 49.4069 129.34 49.0748 129.619 48.7951C129.899 48.5154 130.231 48.2935 130.596 48.1422C130.961 47.9908 131.352 47.913 131.748 47.9131H161.464C161.859 47.913 162.25 47.9908 162.615 48.1422C162.981 48.2935 163.312 48.5154 163.592 48.7951C163.871 49.0748 164.093 49.4069 164.244 49.7724C164.395 50.1379 164.473 50.5297 164.473 50.9253Z" fill="#B3B3B3"/>
<path d="M235.831 56.1167C235.625 55.4501 235.275 54.8369 234.806 54.3202C234.337 53.8036 233.761 53.3961 233.118 53.1265C232.475 52.8569 231.781 52.7316 231.084 52.7596C230.388 52.7876 229.706 52.9681 229.086 53.2885L188.204 38.6062L186.403 48.8293L227.156 60.0469C227.762 61.0528 228.716 61.8009 229.837 62.1496C230.958 62.4983 232.168 62.4233 233.237 61.9388C234.307 61.4544 235.161 60.5941 235.639 59.521C236.117 58.448 236.185 57.2367 235.831 56.1167Z" fill="#FFB8B8"/>
<path opacity="0.2" d="M235.831 56.1167C235.625 55.4501 235.275 54.8369 234.806 54.3202C234.337 53.8036 233.761 53.3961 233.118 53.1265C232.475 52.8569 231.781 52.7316 231.084 52.7596C230.388 52.7876 229.706 52.9681 229.086 53.2885L188.204 38.6062L186.403 48.8293L227.156 60.0469C227.762 61.0528 228.716 61.8009 229.837 62.1496C230.958 62.4983 232.168 62.4233 233.237 61.9388C234.307 61.4544 235.161 60.5941 235.639 59.521C236.117 58.448 236.185 57.2367 235.831 56.1167Z" fill="black"/>
<path d="M195.46 40.4692L191.599 50.5648C191.49 50.8521 191.319 51.1122 191.1 51.3276C190.88 51.543 190.617 51.7085 190.328 51.8129C190.039 51.9173 189.731 51.9581 189.425 51.9326C189.119 51.9071 188.822 51.8158 188.554 51.6649L179.171 46.3789C177.706 45.8079 176.527 44.6788 175.893 43.2391C175.258 41.7994 175.22 40.1666 175.786 38.6987C176.353 37.2308 177.477 36.0475 178.914 35.4083C180.35 34.7691 181.981 34.7261 183.449 35.2887L193.927 37.6147C194.227 37.6814 194.509 37.812 194.754 37.9977C194.999 38.1833 195.201 38.4196 195.346 38.6905C195.492 38.9614 195.577 39.2605 195.597 39.5675C195.617 39.8744 195.57 40.182 195.46 40.4692Z" fill="#007A73"/>
<path d="M239.049 65.4646L224.4 72.1297L226.324 79.3774C230.038 93.3732 231.023 107.954 229.227 122.323L239.937 124.562L248.815 101.901L245.708 76.1288L239.049 65.4646Z" fill="#007A73"/>
<path d="M267.791 99.0125C258.167 99.0125 250.323 106.016 249.942 114.787H285.641C285.26 106.016 277.416 99.0125 267.791 99.0125Z" fill="#3F3D56"/>
<path d="M260.3 100.524C259.799 60.9335 237.273 64.5758 237.273 64.5758C237.273 64.5758 237.695 76.8989 237.897 77.2821C252.251 104.467 228.562 136.337 198.407 130.474C197.839 130.363 197.292 130.251 196.768 130.137C192.948 129.339 189.574 127.114 187.334 123.914C185.094 120.714 184.156 116.781 184.71 112.914C187.681 89.0364 172.907 89.459 172.907 89.459H151.303L140.084 79.352C139.688 78.9952 139.211 78.741 138.694 78.6116C138.177 78.4821 137.636 78.4814 137.119 78.6095C136.602 78.7375 136.124 78.9905 135.727 79.3462C135.33 79.7019 135.026 80.1495 134.842 80.6499L133.399 84.5712C133.399 84.5712 112.091 86.7929 113.867 107.677H120.454C120.438 108.27 120.462 108.864 120.525 109.454L169.689 109.054C172.571 109.031 175.114 111.368 175.126 114.253C175.129 114.955 174.991 115.651 174.719 116.298C174.447 116.946 174.047 117.532 173.544 118.021C173.041 118.51 172.444 118.893 171.79 119.146C171.135 119.399 170.436 119.518 169.735 119.494L161.809 119.23C159.367 130.116 165.36 137.448 171.963 142.058C178.18 146.336 185.557 148.604 193.101 148.557H214.634C242.6 148.557 247.483 125.006 247.483 125.006C262.132 118.786 260.3 100.524 260.3 100.524Z" fill="#3F3D56"/>
<path d="M266.461 161.443C280.252 161.443 291.431 150.252 291.431 136.448C291.431 122.644 280.252 111.454 266.461 111.454C252.671 111.454 241.491 122.644 241.491 136.448C241.491 150.252 252.671 161.443 266.461 161.443Z" fill="#3F3D56"/>
<path d="M266.46 142.575C269.84 142.575 272.58 139.832 272.58 136.449C272.58 133.065 269.84 130.323 266.46 130.323C263.08 130.323 260.34 133.065 260.34 136.449C260.34 139.832 263.08 142.575 266.46 142.575Z" fill="white"/>
<path d="M140.391 161.443C156.265 161.443 169.134 148.562 169.134 132.672C169.134 116.782 156.265 103.9 140.391 103.9C124.516 103.9 111.647 116.782 111.647 132.672C111.647 148.562 124.516 161.443 140.391 161.443Z" fill="#3F3D56"/>
<path d="M140.391 139.723C144.281 139.723 147.435 136.566 147.435 132.672C147.435 128.777 144.281 125.62 140.391 125.62C136.5 125.62 133.346 128.777 133.346 132.672C133.346 136.566 136.5 139.723 140.391 139.723Z" fill="white"/>
<path d="M224.441 74.0994L219.171 59.7695C218.896 59.0227 218.771 58.229 218.803 57.4338C218.834 56.6386 219.022 55.8574 219.356 55.1349C219.689 54.4124 220.161 53.7627 220.746 53.2229C221.33 52.683 222.014 52.2637 222.761 51.9887L237.871 46.4206C239.184 45.9367 240.579 45.7163 241.977 45.7721C243.375 45.828 244.748 46.1588 246.018 46.7459C247.288 47.3329 248.43 48.1646 249.379 49.1934C250.328 50.2223 251.065 51.4282 251.549 52.7422C251.985 53.9217 252.207 55.1694 252.206 56.427C252.201 58.0237 251.84 59.5992 251.149 61.0388C250.459 62.4784 249.457 63.746 248.217 64.7495C247.32 65.4693 246.313 66.038 245.233 66.4332L224.441 74.0994Z" fill="#3F3D56"/>
<path d="M251.985 56.4267C251.984 57.991 251.633 59.5351 250.957 60.9454C250.281 62.3557 249.297 63.5963 248.079 64.576C246.21 64.0825 244.471 63.1875 242.982 61.9531C241.493 60.7188 240.291 59.1747 239.459 57.4283C238.627 55.6819 238.185 53.775 238.163 51.8403C238.141 49.9055 238.541 47.9892 239.334 46.2246C240.857 45.8932 242.434 45.9073 243.95 46.2659C245.467 46.6246 246.884 47.3186 248.097 48.2971C249.311 49.2756 250.29 50.5137 250.963 51.9205C251.635 53.3273 251.985 54.867 251.985 56.4267Z" fill="#007A73"/>
<path d="M117.64 110.565C121.073 110.565 123.855 107.183 123.855 103.012C123.855 98.8397 121.073 95.4578 117.64 95.4578C114.208 95.4578 111.426 98.8397 111.426 103.012C111.426 107.183 114.208 110.565 117.64 110.565Z" fill="#007A73"/>
<path d="M199.79 129.75H205.232L207.822 115.622L199.789 115.622L199.79 129.75Z" fill="#FFB8B8"/>
<path d="M198.402 127.972L209.12 127.972H209.12C210.017 127.972 210.906 128.148 211.734 128.492C212.563 128.836 213.316 129.339 213.95 129.974C214.584 130.609 215.087 131.363 215.431 132.192C215.774 133.022 215.951 133.911 215.951 134.808V135.031L198.403 135.031L198.402 127.972Z" fill="#2F2E41"/>
<path d="M206.107 123.951C206.043 123.951 205.98 123.948 205.916 123.942L198.384 123.393C198.08 123.365 197.786 123.267 197.525 123.107C197.264 122.947 197.043 122.729 196.88 122.47C196.717 122.212 196.615 121.919 196.582 121.614C196.55 121.31 196.588 121.002 196.693 120.714L206.773 98.0464C206.845 97.8443 206.874 97.6295 206.859 97.4154C206.844 97.2014 206.785 96.9928 206.686 96.8027C206.586 96.6105 206.448 96.4414 206.279 96.3066C206.109 96.1718 205.914 96.0744 205.704 96.0208C200.964 94.7806 188.804 91.4784 178.277 87.6147C173.767 85.9593 170.926 83.567 169.834 80.5044C168.394 76.4667 170.524 72.7843 170.616 72.6299L170.687 72.5088L180.593 73.4101L191.331 74.3243L214.864 86.956C216.836 88.0234 218.334 89.7952 219.06 91.9184C219.785 94.0416 219.685 96.3604 218.779 98.413L207.93 122.766C207.773 123.119 207.517 123.419 207.193 123.629C206.87 123.839 206.492 123.951 206.107 123.951Z" fill="#2F2E41"/>
<path d="M182.316 28.5631C188.337 28.5631 193.219 23.677 193.219 17.6496C193.219 11.6222 188.337 6.73608 182.316 6.73608C176.294 6.73608 171.413 11.6222 171.413 17.6496C171.413 23.677 176.294 28.5631 182.316 28.5631Z" fill="#FFB8B8"/>
<path d="M196.683 131.083H202.125L204.714 116.955L196.682 116.955L196.683 131.083Z" fill="#FFB8B8"/>
<path d="M195.294 129.305L206.012 129.304H206.012C206.909 129.304 207.797 129.481 208.626 129.825C209.454 130.168 210.207 130.672 210.842 131.307C211.476 131.942 211.979 132.695 212.322 133.525C212.666 134.354 212.842 135.243 212.842 136.141V136.363L195.294 136.364L195.294 129.305Z" fill="#2F2E41"/>
<path d="M202.999 125.285C202.936 125.285 202.872 125.281 202.808 125.275L195.277 124.726C194.972 124.698 194.678 124.6 194.417 124.44C194.157 124.28 193.936 124.062 193.773 123.804C193.609 123.545 193.507 123.252 193.475 122.947C193.443 122.643 193.481 122.335 193.586 122.047L203.665 99.3794C203.737 99.1773 203.767 98.9625 203.752 98.7484C203.737 98.5344 203.678 98.3258 203.578 98.1358C203.479 97.9435 203.34 97.7744 203.171 97.6396C203.002 97.5048 202.806 97.4074 202.597 97.3538C197.857 96.1137 185.696 92.8114 175.169 88.9477C170.659 87.2923 167.819 84.9 166.727 81.8374C165.287 77.7997 167.417 74.1174 167.508 73.9629L167.58 73.8418L177.485 74.7431L188.224 75.6574L211.757 88.289C213.729 89.3564 215.227 91.1282 215.952 93.2514C216.678 95.3746 216.577 97.6934 215.672 99.7461L204.822 124.099C204.665 124.452 204.409 124.752 204.086 124.962C203.763 125.172 203.385 125.284 202.999 125.285Z" fill="#2F2E41"/>
<path d="M185.678 34.7513L174.137 30.7522C174.137 30.7522 166.891 36.3243 170.372 50.1471C172.189 57.2803 171.66 64.8098 168.863 71.6179C168.526 72.4603 168.138 73.2811 167.7 74.0757C167.7 74.0757 180.574 89.6277 192.559 78.0748L187.898 55.6354C187.898 55.6354 195.222 40.7499 185.678 34.7513Z" fill="#007A73"/>
<path d="M183.669 28.9341C182.118 26.6092 180.893 23.3853 182.601 21.1732C184.288 18.9897 187.614 19.3114 190.197 18.3451C193.794 16.9994 195.881 12.7689 195.23 8.98032C194.579 5.1917 191.541 2.05105 187.922 0.765993C184.302 -0.51906 180.22 -0.101131 176.676 1.37869C172.313 3.20036 168.57 6.72427 167 11.1881C165.431 15.652 166.27 21.0117 169.526 24.4427C173.017 28.1211 178.495 29.1014 183.563 29.042" fill="#2F2E41"/>
<path d="M173.528 9.10172C171.572 10.6951 168.589 9.98738 166.49 8.58901C164.391 7.19064 162.688 5.19944 160.417 4.10306C156.413 2.17019 151.573 3.45511 147.676 5.5961C143.78 7.7371 140.325 10.6949 136.21 12.3751C132.094 14.0552 126.841 14.1383 123.725 10.9658C122.958 13.1901 122.895 15.5971 123.545 17.8584C124.195 20.1197 125.527 22.1251 127.357 23.6011C129.188 25.0771 131.429 25.9517 133.775 26.1056C136.121 26.2595 138.457 25.6852 140.465 24.4611C144.974 21.7114 147.465 15.9459 152.524 14.4282C155.323 13.5883 158.328 14.2647 161.157 14.9974C163.986 15.73 166.936 16.5217 169.791 15.898C172.646 15.2743 175.316 12.7062 174.953 9.80391L173.528 9.10172Z" fill="#2F2E41"/>
<path d="M235.289 55.6723C235.002 55.0363 234.579 54.471 234.051 54.0162C233.522 53.5614 232.9 53.2282 232.228 53.04C231.557 52.8518 230.853 52.8133 230.165 52.9271C229.477 53.0409 228.823 53.3043 228.247 53.6987L185.868 44.1777L185.341 54.5451L227.164 60.644C227.89 61.5672 228.93 62.1918 230.085 62.3994C231.24 62.607 232.431 62.3831 233.433 61.7703C234.434 61.1575 235.176 60.1983 235.518 59.0744C235.86 57.9505 235.779 56.74 235.289 55.6723Z" fill="#FFB8B8"/>
<path d="M193.299 45.1301L190.712 55.6254C190.638 55.924 190.501 56.2032 190.31 56.4441C190.119 56.6849 189.878 56.8816 189.604 57.0209C189.33 57.1602 189.03 57.2388 188.723 57.2513C188.416 57.2637 188.11 57.2098 187.825 57.0932L177.863 53.0064C176.338 52.6216 175.028 51.6469 174.22 50.2962C173.412 48.9456 173.172 47.3292 173.553 45.8019C173.934 44.2745 174.905 42.9609 176.253 42.1492C177.6 41.3376 179.215 41.0942 180.741 41.4725L191.425 42.4868C191.731 42.5159 192.027 42.6107 192.293 42.7647C192.559 42.9186 192.789 43.1282 192.967 43.379C193.144 43.6299 193.266 43.9162 193.323 44.2183C193.381 44.5205 193.372 44.8315 193.299 45.1301V45.1301Z" fill="#007A73"/>
<path d="M230.393 63.9095C232.109 63.9095 233.5 62.517 233.5 60.7991C233.5 59.0813 232.109 57.6887 230.393 57.6887C228.676 57.6887 227.285 59.0813 227.285 60.7991C227.285 62.517 228.676 63.9095 230.393 63.9095Z" fill="#007A73"/>
<path d="M368 161.665C368 161.783 367.953 161.895 367.87 161.979C367.786 162.062 367.674 162.109 367.556 162.109H0.443908C0.326177 162.109 0.213266 162.062 0.130017 161.979C0.0467684 161.896 0 161.783 0 161.665C0 161.547 0.0467684 161.434 0.130017 161.351C0.213266 161.267 0.326177 161.22 0.443908 161.22H367.556C367.674 161.221 367.786 161.268 367.87 161.351C367.953 161.434 368 161.547 368 161.665Z" fill="#3F3D56"/>
</svg>
