<svg width="466" height="276" viewBox="0 0 466 276" fill="none" xmlns="http://www.w3.org/2000/svg">
<g clip-path="url(#clip0)">
<path opacity="0.2" d="M68.1003 0.0316207C64.4749 -0.0721048 60.7595 0.0316172 57.359 1.07789C48.1064 3.92809 43.7208 13.2544 45.1467 21.3134C46.5726 29.3724 52.4381 36.3942 58.524 42.8116C64.6098 49.2291 71.204 55.5744 74.5416 63.2455C76.2059 67.0744 76.984 71.3632 75.2928 75.1875C72.6839 81.0818 64.8168 84.374 57.2645 85.0595C49.7122 85.7449 42.1285 84.41 34.5492 83.9636C31.3691 83.7787 28.099 83.7561 25.1033 84.6175C21.8152 85.5555 19.0759 87.4722 16.557 89.4701C6.72868 97.3081 -1.13844 108.001 0.134518 119.235C1.5739 131.966 14.4114 142.027 28.4724 147.426C33.1279 149.229 38.0532 150.664 42.151 153.216C52.9464 159.949 55.3708 172.577 54.2958 183.72C53.2207 194.864 49.5593 206.021 51.5969 217.066C53.9944 229.914 64.6054 241.523 78.9182 246.943C91.6702 251.773 107.629 251.453 118.951 244.639C124.47 241.311 128.644 236.688 132.274 231.908C137.664 224.848 142.117 217.117 145.521 208.908C147.1 205.079 148.584 200.961 152.268 198.301C154.517 196.664 157.432 195.748 160.315 195.036C169.006 192.889 178.159 192.303 186.93 190.39C195.702 188.478 204.527 184.902 209.295 178.543C216.042 169.524 212.893 157.969 212.925 147.362C212.979 123.163 230.517 101.502 236.989 77.9114C239.103 70.2042 239.891 61.6761 235.168 54.7987C231.961 50.131 226.549 46.7622 220.864 44.16C208.355 38.4371 194.136 35.8891 180.152 33.4087C160.716 29.9632 137.114 29.5167 122.05 18.3685C107.593 7.66671 87.8154 0.0316207 68.1003 0.0316207Z" fill="#007A73"/>
<path d="M256.84 276C372.356 276 466 250.858 466 219.844C466 188.83 372.356 163.688 256.84 163.688C141.324 163.688 47.6797 188.83 47.6797 219.844C47.6797 250.858 141.324 276 256.84 276Z" fill="#F5F5F5"/>
<path d="M430.546 84.2703C430.546 84.2703 414.429 100.429 423.529 124.408C432.629 148.386 407.93 188.262 407.93 188.262C407.93 188.262 408.195 188.221 408.685 188.136C441.787 182.273 458.236 144.318 439.83 116.119C432.988 105.638 427.37 93.353 430.546 84.2703Z" fill="#007A73"/>
<path d="M430.546 84.2703C430.546 84.2703 421.446 104.077 430.546 120.236C439.646 136.395 432.107 181.745 407.93 188.262" stroke="#535461" stroke-width="2" stroke-miterlimit="10"/>
<path d="M459.253 149.631C459.253 149.631 440.86 146.695 439.187 163.219C437.514 179.743 403.823 182.034 403.823 182.034L404.453 182.453C432.269 200.758 458.88 194.115 454.831 169.826C453.361 160.77 453.482 151.692 459.253 149.631Z" fill="#007A73"/>
<path opacity="0.2" d="M459.253 149.631C459.253 149.631 440.86 146.695 439.187 163.219C437.514 179.743 403.823 182.034 403.823 182.034L404.453 182.453C432.269 200.758 458.88 194.115 454.831 169.826C453.361 160.77 453.482 151.692 459.253 149.631Z" fill="#F5F5F5"/>
<path d="M459.253 149.631C459.253 149.631 444.976 152.788 446.15 165.785C447.324 178.782 424.951 194.4 403.823 182.02" stroke="#535461" stroke-width="2" stroke-miterlimit="10"/>
<path d="M416.687 189.376H387.792C388.457 188.035 388.802 186.557 388.799 185.06V53.121C388.799 50.5482 387.78 48.0809 385.965 46.2617C384.151 44.4424 381.69 43.4204 379.124 43.4204H155.417C154.146 43.4198 152.887 43.6703 151.713 44.1575C150.539 44.6448 149.471 45.3592 148.572 46.2601C147.674 47.1609 146.96 48.2305 146.474 49.4077C145.987 50.5849 145.737 51.8467 145.737 53.121V185.064C145.735 186.562 146.08 188.039 146.745 189.38H116.828C116.149 189.38 115.498 189.651 115.018 190.132C114.538 190.613 114.269 191.266 114.269 191.946V194.016C114.272 197.82 115.782 201.466 118.465 204.155C121.149 206.843 124.788 208.353 128.581 208.353H404.934C408.73 208.353 412.37 206.841 415.054 204.15C417.739 201.459 419.247 197.809 419.247 194.003V191.933C419.244 191.254 418.974 190.603 418.494 190.124C418.014 189.645 417.364 189.376 416.687 189.376ZM238.613 197.584L236.148 194.765H297.646L294.902 197.588L238.613 197.584Z" fill="url(#paint0_linear)"/>
<path d="M375.575 45.2876H158.948C153.17 45.2876 148.485 49.984 148.485 55.7774V182.715C148.485 188.508 153.17 193.205 158.948 193.205H375.575C381.353 193.205 386.037 188.508 386.037 182.715V55.7774C386.037 49.984 381.353 45.2876 375.575 45.2876Z" fill="#535461"/>
<path d="M380.532 66.8489H153.483V187.689H380.532V66.8489Z" fill="white"/>
<path d="M267.009 58.3252C268.115 58.3252 269.011 57.4267 269.011 56.3184C269.011 55.21 268.115 54.3115 267.009 54.3115C265.904 54.3115 265.008 55.21 265.008 56.3184C265.008 57.4267 265.904 58.3252 267.009 58.3252Z" fill="white"/>
<path d="M302.067 187.937L294.263 195.96H239.252L232.203 187.937H120.228C119.565 187.937 118.929 188.201 118.46 188.671C117.991 189.142 117.728 189.779 117.728 190.444V192.465C117.728 196.185 119.201 199.752 121.825 202.382C124.448 205.013 128.006 206.49 131.717 206.49H401.803C405.513 206.49 409.071 205.013 411.695 202.382C414.318 199.752 415.792 196.185 415.792 192.465V190.444C415.792 189.779 415.529 189.142 415.06 188.671C414.591 188.201 413.954 187.937 413.291 187.937H302.067Z" fill="#535461"/>
<path d="M224.188 71.0972H128.411C126.084 71.0948 123.852 72.0189 122.204 73.6663C120.557 75.3137 119.63 77.5495 119.626 79.8823V212.921C119.63 215.254 120.557 217.49 122.204 219.138C123.852 220.785 126.084 221.709 128.411 221.707H224.188C226.515 221.709 228.747 220.785 230.395 219.138C232.042 217.49 232.969 215.254 232.973 212.921V79.8823C232.969 77.5495 232.042 75.3137 230.395 73.6663C228.747 72.0189 226.515 71.0948 224.188 71.0972Z" fill="url(#paint1_linear)"/>
<path d="M222.627 72.9011H129.967C124.998 72.9011 120.971 76.9393 120.971 81.9207V211.352C120.971 216.334 124.998 220.372 129.967 220.372H222.627C227.595 220.372 231.623 216.334 231.623 211.352V81.9207C231.623 76.9393 227.595 72.9011 222.627 72.9011Z" fill="#535461"/>
<path d="M226.001 86.8499H126.594V206.423H226.001V86.8499Z" fill="white"/>
<path d="M175.847 81.0186C176.593 81.0186 177.197 80.4129 177.197 79.6657C177.197 78.9185 176.593 78.3127 175.847 78.3127C175.102 78.3127 174.498 78.9185 174.498 79.6657C174.498 80.4129 175.102 81.0186 175.847 81.0186Z" fill="white"/>
<path d="M175.847 217.215C178.083 217.215 179.895 215.398 179.895 213.156C179.895 210.914 178.083 209.097 175.847 209.097C173.611 209.097 171.799 210.914 171.799 213.156C171.799 215.398 173.611 217.215 175.847 217.215Z" fill="white"/>
<path d="M151.185 116.195H102.007C101.369 116.194 100.736 116.319 100.146 116.563C99.5553 116.807 99.0186 117.165 98.5663 117.617C98.1139 118.068 97.7548 118.605 97.5093 119.196C97.2639 119.787 97.1369 120.421 97.1357 121.061V229.035C97.1369 229.675 97.2639 230.309 97.5093 230.9C97.7548 231.491 98.1139 232.028 98.5663 232.479C99.0186 232.931 99.5553 233.289 100.146 233.533C100.736 233.777 101.369 233.902 102.007 233.901H151.185C151.823 233.902 152.456 233.777 153.046 233.533C153.636 233.289 154.173 232.931 154.625 232.479C155.078 232.028 155.437 231.491 155.682 230.9C155.928 230.309 156.055 229.675 156.056 229.035V121.061C156.055 120.421 155.928 119.787 155.682 119.196C155.437 118.605 155.078 118.068 154.625 117.617C154.173 117.165 153.636 116.807 153.046 116.563C152.456 116.319 151.823 116.194 151.185 116.195Z" fill="url(#paint2_linear)"/>
<path d="M150.658 117.097H102.529C99.7963 117.097 97.5811 119.318 97.5811 122.058V228.489C97.5811 231.229 99.7963 233.45 102.529 233.45H150.658C153.391 233.45 155.606 231.229 155.606 228.489V122.058C155.606 119.318 153.391 117.097 150.658 117.097Z" fill="#535461"/>
<path d="M151.333 127.921H101.854V222.627H151.333V127.921Z" fill="white"/>
<path d="M120.746 122.96C120.994 122.96 121.196 122.758 121.196 122.509C121.196 122.26 120.994 122.058 120.746 122.058C120.497 122.058 120.296 122.26 120.296 122.509C120.296 122.758 120.497 122.96 120.746 122.96Z" fill="white"/>
<path d="M132.441 122.058H123.445C123.197 122.058 122.995 122.26 122.995 122.509C122.995 122.758 123.197 122.96 123.445 122.96H132.441C132.689 122.96 132.891 122.758 132.891 122.509C132.891 122.26 132.689 122.058 132.441 122.058Z" fill="white"/>
<path d="M126.368 230.293C128.107 230.293 129.517 228.88 129.517 227.136C129.517 225.393 128.107 223.979 126.368 223.979C124.629 223.979 123.22 225.393 123.22 227.136C123.22 228.88 124.629 230.293 126.368 230.293Z" fill="white"/>
<path d="M91.6388 241.838C91.6388 241.838 85.6743 221.544 92.7588 206.599C95.7745 200.351 96.6868 193.292 95.3587 186.48C94.702 183.254 93.752 180.094 92.5204 177.041" stroke="#535461" stroke-width="2" stroke-miterlimit="10"/>
<path d="M96.9112 167.598C96.9112 170.087 92.4131 177.299 92.4131 177.299C92.4131 177.299 87.915 170.083 87.915 167.598C87.915 166.402 88.3889 165.255 89.2325 164.409C90.076 163.563 91.2201 163.088 92.4131 163.088C93.6061 163.088 94.7502 163.563 95.5937 164.409C96.4373 165.255 96.9112 166.402 96.9112 167.598Z" fill="#007A73"/>
<path d="M104.355 181.38C103.006 183.468 95.3232 187.076 95.3232 187.076C95.3232 187.076 95.4627 178.57 96.8121 176.482C97.119 175.956 97.5291 175.498 98.0176 175.135C98.5061 174.772 99.0628 174.512 99.6543 174.371C100.246 174.23 100.859 174.211 101.459 174.314C102.058 174.418 102.63 174.642 103.14 174.973C103.65 175.305 104.088 175.736 104.427 176.242C104.767 176.748 105 177.317 105.114 177.916C105.227 178.515 105.219 179.131 105.088 179.726C104.958 180.321 104.709 180.884 104.355 181.38Z" fill="#007A73"/>
<path d="M104.014 204.925C101.796 206.044 93.3486 205.273 93.3486 205.273C93.3486 205.273 97.7522 198.003 99.9653 196.884C101.022 196.406 102.222 196.355 103.316 196.742C104.409 197.129 105.311 197.925 105.833 198.963C106.356 200.001 106.458 201.201 106.119 202.313C105.78 203.425 105.026 204.362 104.014 204.93V204.925Z" fill="#007A73"/>
<path d="M99.767 222.689C97.7698 224.169 89.3135 224.836 89.3135 224.836C89.3135 224.836 92.4261 216.926 94.4233 215.447C95.3842 214.804 96.555 214.557 97.693 214.756C98.8309 214.955 99.8489 215.585 100.536 216.516C101.223 217.447 101.526 218.608 101.383 219.757C101.24 220.906 100.661 221.956 99.767 222.689Z" fill="#007A73"/>
<path d="M85.8727 187.558C87.6719 189.29 95.9438 191.089 95.9438 191.089C95.9438 191.089 93.9152 182.832 92.134 181.1C91.7179 180.655 91.2161 180.299 90.6589 180.054C90.1016 179.809 89.5006 179.68 88.8921 179.674C88.2836 179.669 87.6804 179.787 87.1188 180.022C86.5573 180.257 86.0491 180.604 85.6251 181.041C85.2012 181.479 84.8701 181.998 84.6521 182.568C84.4341 183.137 84.3336 183.745 84.3568 184.355C84.3799 184.965 84.5262 185.563 84.7868 186.115C85.0473 186.666 85.4167 187.159 85.8727 187.563V187.558Z" fill="#007A73"/>
<path d="M81.1675 208.393C83.3851 209.512 91.8324 208.741 91.8324 208.741C91.8324 208.741 87.4288 201.471 85.2158 200.352C84.6861 200.055 84.1019 199.869 83.4985 199.804C82.895 199.739 82.2847 199.798 81.7043 199.975C81.1239 200.153 80.5854 200.447 80.1213 200.839C79.6571 201.231 79.277 201.714 79.0036 202.257C78.7302 202.8 78.5693 203.393 78.5306 204.001C78.4919 204.608 78.5762 205.217 78.7784 205.79C78.9805 206.364 79.2964 206.891 79.707 207.339C80.1176 207.787 80.6144 208.147 81.1675 208.398V208.393Z" fill="#007A73"/>
<path d="M79.3685 229.274C81.3657 230.753 89.822 231.421 89.822 231.421C89.822 231.421 86.7094 223.51 84.7122 222.031C83.7513 221.388 82.5805 221.141 81.4425 221.34C80.3046 221.539 79.2866 222.17 78.5996 223.101C77.9127 224.032 77.6093 225.192 77.7525 226.342C77.8956 227.491 78.4743 228.541 79.3685 229.274Z" fill="#007A73"/>
<path d="M447.558 177.28C442.578 171.224 436.546 164.265 437.392 156.206C438.076 149.68 436.439 143.646 436.762 137.098C437.212 127.794 435.35 120.511 428.666 114.549C424.762 111.063 418.235 108.325 416.292 109.024C412.441 110.404 408.24 109.877 404.277 110.828C401.268 111.532 399.266 112.632 398.025 113.985C395.529 116.24 395.488 119.397 396.626 122.757C395.633 124.58 395.033 126.593 394.867 128.664C394.7 130.735 394.969 132.818 395.658 134.778C396.346 136.738 397.438 138.531 398.863 140.04C400.287 141.549 402.013 142.741 403.926 143.538C401.151 144.702 398.754 147.38 397.818 152.819C397.168 156.554 396.185 160.223 394.881 163.782C394.295 164.057 393.694 164.3 393.082 164.509C393.217 164.563 393.356 164.599 393.491 164.648C393.199 164.761 392.911 164.874 392.591 164.973C393.123 165.181 393.673 165.341 394.233 165.451C390.635 174.565 386.137 180.212 386.137 180.212C386.137 180.212 377.748 182.07 374.487 178.818C374.487 178.818 375.017 179.441 375.737 180.374C372.548 179.048 367.312 176.883 362.837 175.102C359.589 173.808 358.757 175.102 358.788 176.906C357.996 177.006 357.231 177.263 356.539 177.664C355.58 177.045 354.574 176.502 353.53 176.04C351.668 175.589 345.609 172.324 339.55 183.468C336.024 189.948 326.982 201.778 320.033 210.527C306.516 216.759 288.92 224.651 282.38 226.636H278.187C277.639 225.734 277.256 225.165 277.256 225.165L276.932 225.382L276.793 225.165C276.793 225.165 268.562 230.879 260.204 230.924C259.015 230.908 257.832 230.757 256.678 230.473C252.836 229.504 250.128 229.071 248.194 229.121C245.905 229.08 244.596 229.626 243.804 230.654C243.698 230.789 243.6 230.93 243.512 231.078C243.423 231.224 243.342 231.374 243.269 231.529C243.197 231.691 243.125 231.862 243.062 232.038C243.036 232.195 243.046 232.356 243.091 232.508C243.136 232.661 243.216 232.801 243.323 232.918C243.435 233.075 243.557 233.226 243.687 233.369L243.921 233.621C244.974 234.713 246.89 236.16 249.274 237.775C249.962 238.226 250.691 238.722 251.451 239.213L252.895 240.115L254.186 240.923L254.703 241.243L255.279 241.595L256.309 242.221L256.921 242.591L258.077 243.281L259.012 243.836C261.459 245.284 263.897 246.686 266.097 247.931L267.635 248.851L267.783 248.932L268.773 249.487L270.482 250.438L271.656 251.088L272.205 251.39L272.794 251.715L272.911 251.778L273.937 252.337C274.148 252.373 274.364 252.362 274.57 252.306C274.777 252.25 274.969 252.15 275.133 252.012C275.43 250.75 276.154 248.044 276.932 247.836C277.711 247.629 281.08 241.725 282.029 237.775H291.124C292.915 237.621 294.695 237.347 296.45 236.954C294.102 238.632 291.776 239.687 289.968 239.236C286.145 238.284 282.524 240.62 282.159 242.925C282.159 242.975 282.128 243.02 282.114 243.069C282.101 243.119 282.092 243.164 282.083 243.209C282.074 243.254 282.056 243.322 282.047 243.381C282.038 243.439 282.047 243.475 282.047 243.525C282.047 243.574 282.047 243.638 282.047 243.696C282.047 243.755 282.047 243.791 282.047 243.836C282.047 243.881 282.047 243.953 282.047 244.012C282.047 244.071 282.047 244.102 282.047 244.147C282.047 244.192 282.074 244.269 282.092 244.332C282.11 244.395 282.092 244.413 282.123 244.449C282.152 244.531 282.185 244.611 282.222 244.688L282.245 244.747C282.295 244.845 282.352 244.94 282.416 245.031L282.488 245.126C282.533 245.189 282.582 245.252 282.636 245.311L282.739 245.414C282.793 245.469 282.852 245.523 282.91 245.577L283.036 245.681L283.239 245.829L283.387 245.929L283.63 246.073L283.792 246.159L284.098 246.303L284.251 246.371C284.413 246.438 284.584 246.501 284.768 246.56C285.06 246.655 285.407 246.754 285.798 246.853L286.189 246.948L286.761 247.079L287.062 247.146C287.452 247.23 287.866 247.315 288.304 247.399L288.911 247.512L289.406 247.602L290.544 247.8C291.254 247.922 291.996 248.044 292.793 248.161L294.754 248.459L297.309 248.824L297.875 248.9L298.775 249.027L300.093 249.203L300.993 249.32L303.327 249.618L304.056 249.708L305.527 249.888C307.461 250.123 309.332 250.339 311.055 250.533L313.047 250.759L314.055 250.871L314.505 250.916L315.71 251.047L316.381 251.119L317.208 251.205L318.373 251.327H318.499L319.246 251.403C319.339 251.413 319.434 251.404 319.524 251.375C319.613 251.347 319.696 251.3 319.767 251.237C319.837 251.175 319.894 251.099 319.934 251.013C319.974 250.928 319.995 250.835 319.997 250.741C319.997 250.718 319.997 250.691 319.997 250.664C320.066 250.559 320.103 250.437 320.105 250.312C320.125 249.2 320.265 248.093 320.523 247.011C320.573 246.826 320.631 246.637 320.694 246.447L320.766 246.231C320.847 246.001 320.928 245.78 321.023 245.532C321.09 245.364 321.149 245.192 321.198 245.018C321.198 244.963 321.229 244.909 321.247 244.851C321.265 244.792 321.292 244.666 321.31 244.571C322.246 241.365 321.117 235.385 320.793 233.035C320.689 232.284 320.518 231.545 320.28 230.825C320.339 230.831 320.397 230.831 320.456 230.825C320.939 230.647 321.393 230.4 321.805 230.09C328.678 227.632 334.472 224.823 336.302 222.009C339.267 221.224 342.416 221.554 345.155 222.938C348.713 224.71 375.629 233.518 388.161 237.585C390.41 239.529 392.173 240.666 393.149 240.58C393.149 240.58 409.104 243.169 415.518 238.118C416.089 238.514 416.449 238.726 416.449 238.726C416.449 238.726 425.769 234.086 427.168 228.047C427.618 226.09 428.027 223.204 428.445 220.011C430.608 217.827 431.823 214.876 431.828 211.798C432.12 201.66 436.038 190.079 438.944 179.779C442.47 180.058 443.833 179.391 447.067 177.79L446.924 177.605C447.153 177.47 447.355 177.38 447.558 177.28ZM394.125 192.465L392.326 191.865C392.929 191.057 393.449 190.19 393.878 189.276L394.125 192.465ZM384.099 196.731L394.894 203.225L394.989 204.547C394.857 205.552 394.888 206.572 395.079 207.568C390.32 203.329 384.751 198.183 384.094 196.727L384.099 196.731ZM379.691 187.261C378.512 186.773 377.536 186.331 376.866 185.966C377.766 186.029 378.62 186.083 379.367 186.124C379.515 186.49 379.623 186.871 379.691 187.261ZM350.777 197.845C350.777 197.845 352.639 193.669 356.836 200.632C357.488 201.714 358.689 203.437 360.277 205.57L348.06 203.933C349.5 201.696 350.467 199.617 350.777 197.85V197.845Z" fill="url(#paint3_linear)"/>
<path d="M377.613 181.069C377.613 181.069 369.066 177.461 362.319 174.755C355.572 172.049 359.62 181.069 359.62 181.069C359.62 181.069 370.866 184.226 370.866 184.676C370.866 185.127 380.312 185.578 380.312 185.578L377.613 181.069Z" fill="#F7C4A7"/>
<path opacity="0.05" d="M377.613 181.069C377.613 181.069 369.066 177.461 362.319 174.755C355.572 172.049 359.62 181.069 359.62 181.069C359.62 181.069 370.866 184.226 370.866 184.676C370.866 185.127 380.312 185.578 380.312 185.578L377.613 181.069Z" fill="black"/>
<path d="M414.047 145.441C414.047 145.441 398.754 137.324 396.055 153.108C393.356 168.892 384.81 179.716 384.81 179.716C384.81 179.716 376.713 181.52 373.564 178.363C373.564 178.363 381.211 187.382 377.613 188.284C377.613 188.284 385.709 194.147 389.308 192.343C392.906 190.539 395.605 178.363 396.954 175.206C398.304 172.049 403.252 144.539 414.047 145.441Z" fill="#292929"/>
<path opacity="0.1" d="M414.047 145.441C414.047 145.441 398.754 137.324 396.055 153.108C393.356 168.892 384.81 179.716 384.81 179.716C384.81 179.716 376.713 181.52 373.564 178.363C373.564 178.363 381.211 187.382 377.613 188.284C377.613 188.284 385.709 194.147 389.308 192.343C392.906 190.539 395.605 178.363 396.954 175.206C398.304 172.049 403.252 144.539 414.047 145.441Z" fill="black"/>
<path d="M405.501 140.03C405.501 140.03 414.947 150.853 415.397 159.873C415.847 168.892 426.192 150.402 427.092 149.951C427.991 149.5 418.096 134.167 417.196 129.206C416.296 124.245 405.501 140.03 405.501 140.03Z" fill="#F7C4A7"/>
<path d="M412.023 144.652L406.063 150.064L408.875 161.451L416.521 154.235L415.622 147.02L412.023 144.652Z" fill="#F7C4A7"/>
<path d="M287.651 224.814H277.306L281.354 234.735L291.25 232.029L287.651 224.814Z" fill="#F7C4A7"/>
<path opacity="0.1" d="M279.698 223.384C279.698 223.384 268.984 230.866 259.83 228.539C250.677 226.212 248.189 227.082 247.123 230.086C246.138 232.85 272.69 247.471 276.923 249.78C276.989 249.816 277.062 249.836 277.137 249.839C277.211 249.842 277.286 249.828 277.354 249.798C277.423 249.767 277.483 249.721 277.531 249.663C277.578 249.605 277.612 249.537 277.629 249.464C277.917 248.238 278.614 245.608 279.361 245.405C280.333 245.144 284.759 236.837 284.516 233.572C284.273 230.307 279.698 223.384 279.698 223.384Z" fill="black"/>
<path d="M279.249 223.384C279.249 223.384 268.535 230.866 259.381 228.539C250.228 226.212 247.74 227.082 246.674 230.086C245.689 232.85 272.241 247.471 276.474 249.78C276.54 249.816 276.613 249.836 276.687 249.839C276.762 249.842 276.837 249.828 276.905 249.798C276.973 249.767 277.034 249.721 277.082 249.663C277.129 249.605 277.163 249.537 277.18 249.464C277.468 248.238 278.165 245.608 278.912 245.405C279.883 245.144 284.31 236.837 284.067 233.572C283.824 230.307 279.249 223.384 279.249 223.384Z" fill="#F3B5B7"/>
<path d="M367.718 205.422L337.581 201.363C337.581 201.363 288.552 224.814 282.704 225.265L284.054 235.637H293.05C296.648 235.637 331.733 227.971 336.681 220.304C339.543 219.541 342.586 219.862 345.227 221.206C349.725 223.461 392.907 237.441 392.907 237.441L367.718 205.422Z" fill="#292929"/>
<path opacity="0.1" d="M367.718 205.422L337.581 201.363C337.581 201.363 288.552 224.814 282.704 225.265L284.054 235.637H293.05C296.648 235.637 331.733 227.971 336.681 220.304C339.543 219.541 342.586 219.862 345.227 221.206C349.725 223.461 392.907 237.441 392.907 237.441L367.718 205.422Z" fill="black"/>
<path d="M314.19 219.402L309.242 225.716L314.19 228.421L321.387 223.01L314.19 219.402Z" fill="#F7C4A7"/>
<path d="M400.103 212.186C400.103 212.186 383.91 198.287 382.79 195.766C381.67 193.245 355.122 176.108 353.323 175.657C351.524 175.206 345.676 172.049 339.829 182.873C333.981 193.696 312.391 219.853 312.391 219.853C312.391 219.853 319.138 229.324 321.387 228.873C323.636 228.422 348.825 207.226 350.624 196.853C350.624 196.853 352.423 192.794 356.472 199.559C360.52 206.324 386.609 238.794 391.557 238.343C391.557 238.343 410.898 241.5 414.947 233.833C418.995 226.167 400.103 212.186 400.103 212.186Z" fill="#292929"/>
<path d="M409.324 146.118C409.324 146.118 403.702 148.598 403.252 158.971C402.802 169.343 392.906 186.931 392.906 186.931L393.806 207.676C393.806 207.676 404.601 218.5 405.501 225.265C406.4 232.029 414.047 236.539 414.047 236.539C414.047 236.539 423.043 232.029 424.393 226.167C425.742 220.304 426.642 205.873 428.891 200.461C431.14 195.049 429.79 161.225 429.79 161.225L423.043 149.5L419.445 145.441L409.999 156.265C409.999 156.265 404.826 149.274 409.324 146.118Z" fill="#DDDBE2"/>
<path opacity="0.1" d="M396.055 200.912C396.055 200.912 394.706 184.676 398.754 181.069L406.85 158.069C406.85 158.069 409.774 147.02 409.324 146.118C408.875 145.216 398.754 154.912 398.754 154.912L392.007 178.814L393.806 204.069L396.055 200.912Z" fill="black"/>
<path d="M395.605 200.912C395.605 200.912 394.255 184.677 398.304 181.069L406.4 158.069C406.4 158.069 409.549 146.794 409.099 145.892C408.649 144.99 398.304 154.912 398.304 154.912L391.557 178.814L393.356 204.069L395.605 200.912Z" fill="#292929"/>
<path d="M398.754 193.696C398.754 193.696 376.264 186.48 374.915 184.677C373.565 182.873 359.171 171.147 354.223 179.265C349.276 187.382 372.666 189.637 372.666 189.637L396.505 204.069L398.754 193.696Z" fill="#F7C4A7"/>
<path opacity="0.1" d="M315.167 225.675L308.509 224.476C308.509 224.476 297.606 238.479 291.925 237.058C286.244 235.637 281.017 241.766 287.018 243.732C292.438 245.509 315.846 247.994 320.303 248.454C320.394 248.464 320.485 248.454 320.571 248.426C320.658 248.399 320.737 248.353 320.805 248.293C320.873 248.233 320.928 248.159 320.966 248.077C321.005 247.994 321.026 247.905 321.028 247.814C321.062 246.071 321.412 244.348 322.062 242.731C323.263 239.777 322.062 233.432 321.729 231.006C321.546 229.584 321.102 228.208 320.42 226.947L315.167 225.675Z" fill="black"/>
<path d="M315.053 226.112L308.396 224.913C308.396 224.913 297.493 238.916 291.821 237.5C286.149 236.084 280.913 242.208 286.913 244.174C292.333 245.951 315.741 248.436 320.199 248.896C320.289 248.905 320.38 248.896 320.467 248.868C320.553 248.84 320.633 248.795 320.701 248.735C320.769 248.675 320.824 248.601 320.862 248.519C320.9 248.436 320.921 248.347 320.923 248.256C320.945 246.517 321.282 244.796 321.917 243.178C323.118 240.224 321.917 233.878 321.584 231.452C321.401 230.03 320.957 228.654 320.275 227.393L315.053 226.112Z" fill="#F3B5B7"/>
<path opacity="0.1" d="M408.874 145.216C416.824 145.216 423.268 138.755 423.268 130.784C423.268 122.814 416.824 116.353 408.874 116.353C400.925 116.353 394.48 122.814 394.48 130.784C394.48 138.755 400.925 145.216 408.874 145.216Z" fill="black"/>
<path d="M407.525 145.216C415.474 145.216 421.918 138.755 421.918 130.784C421.918 122.814 415.474 116.353 407.525 116.353C399.575 116.353 393.131 122.814 393.131 130.784C393.131 138.755 399.575 145.216 407.525 145.216Z" fill="#F7C4A7"/>
<path d="M421.694 144.99C421.694 144.99 438.787 150.853 438.787 163.029C438.787 175.206 429.341 194.598 428.891 210.382C428.441 226.167 403.702 223.912 403.702 223.912C403.702 223.912 400.103 170.696 403.702 166.637C407.3 162.578 423.493 146.794 421.694 144.99Z" fill="#292929"/>
<path opacity="0.1" d="M418.545 170.245C418.545 170.245 412.248 198.206 397.404 193.245C397.404 193.245 389.757 204.52 395.155 209.481C395.155 209.481 408.199 212.637 416.746 204.069C425.292 195.5 431.589 192.343 432.939 181.971C434.288 171.598 435.188 157.167 430.69 158.52C426.192 159.873 418.545 170.245 418.545 170.245Z" fill="black"/>
<path d="M418.995 169.794C418.995 169.794 412.698 197.755 397.854 192.794C397.854 192.794 390.208 204.069 395.605 209.029C395.605 209.029 408.65 212.186 417.196 203.618C425.742 195.049 432.04 191.892 433.389 181.52C434.738 171.147 435.638 156.716 431.14 158.069C426.642 159.422 418.995 169.794 418.995 169.794Z" fill="#292929"/>
<path d="M322.304 241.726C322.304 241.766 322.277 241.816 322.264 241.852C321.954 242.623 321.718 243.422 321.558 244.238C321.666 243.886 321.791 243.525 321.935 243.164C322.112 242.7 322.236 242.218 322.304 241.726Z" fill="#DDDBE2"/>
<path d="M287.243 242.857C285.389 242.249 284.611 241.247 284.58 240.192C283.815 241.662 284.296 243.313 286.914 244.17C292.334 245.947 315.747 248.432 320.2 248.892C320.291 248.901 320.382 248.891 320.469 248.863C320.556 248.835 320.636 248.79 320.704 248.729C320.772 248.668 320.827 248.594 320.864 248.511C320.902 248.428 320.923 248.338 320.924 248.247C320.927 248.081 320.869 247.92 320.76 247.796C320.651 247.672 320.499 247.593 320.335 247.575C315.45 247.052 292.591 244.607 287.243 242.857Z" fill="#DDDBE2"/>
<path d="M247.294 229.292C247.413 228.96 247.564 228.64 247.744 228.336C247.259 228.828 246.897 229.427 246.687 230.086C245.702 232.85 272.254 247.471 276.487 249.78C276.553 249.816 276.626 249.836 276.701 249.839C276.776 249.842 276.851 249.827 276.919 249.796C276.988 249.765 277.048 249.719 277.095 249.66C277.143 249.602 277.176 249.533 277.193 249.46C277.218 249.356 277.208 249.247 277.165 249.149C277.122 249.051 277.048 248.97 276.954 248.919C272.276 246.353 246.323 232.025 247.294 229.292Z" fill="#DDDBE2"/>
<path d="M279.528 244.616C279.289 244.679 279.055 244.999 278.835 245.437L278.907 245.41C279.105 245.356 279.442 244.959 279.852 244.373C279.764 244.478 279.653 244.561 279.528 244.616Z" fill="#DDDBE2"/>
<path opacity="0.1" d="M405.528 143.489C404.259 146.294 403.994 149.455 403.063 152.395C401.214 158.227 396.577 163.052 391.021 164.915C395.695 166.782 401.21 164.5 404.822 160.711C408.434 156.923 410.552 151.881 412.581 146.975C417.825 150.51 417.187 158.637 418.95 164.964C419.707 167.717 421.044 170.275 422.871 172.465C424.699 174.655 426.974 176.427 429.543 177.659C432.103 178.811 434.886 179.379 437.692 179.322C440.498 179.265 443.256 178.585 445.767 177.33C440.959 171.467 434.113 163.381 434.927 155.552C435.588 149.211 431.05 144.368 431.36 138.005C431.81 128.985 428.364 124.403 421.914 118.612C418.145 115.226 424.078 110.45 419.215 111.848C417.304 112.398 415.289 110.346 413.413 111.022C409.697 112.375 405.64 111.852 401.817 112.754C381.944 117.435 407.381 139.394 405.528 143.489Z" fill="black"/>
<path d="M405.978 143.037C404.709 145.843 404.444 149.004 403.513 151.944C401.664 157.776 397.027 162.601 391.472 164.464C396.145 166.331 401.66 164.049 405.272 160.26C408.884 156.472 411.002 151.43 413.031 146.524C418.276 150.059 417.637 158.186 419.4 164.513C420.157 167.266 421.494 169.824 423.322 172.014C425.149 174.204 427.424 175.975 429.993 177.208C432.553 178.36 435.337 178.928 438.142 178.871C440.948 178.814 443.706 178.134 446.218 176.879C441.409 171.016 435.013 164.283 435.827 156.454C436.488 150.113 435.503 143.597 435.827 137.238C436.277 128.218 431.864 119.505 425.41 113.715C421.64 110.328 415.752 109.895 413.872 110.558C410.157 111.911 406.099 111.388 402.276 112.29C382.395 116.984 407.831 138.943 405.978 143.037Z" fill="#292929"/>
</g>
<defs>
<linearGradient id="paint0_linear" x1="266.758" y1="208.362" x2="266.758" y2="43.4159" gradientUnits="userSpaceOnUse">
<stop stop-color="#808080" stop-opacity="0.25"/>
<stop offset="0.54" stop-color="#808080" stop-opacity="0.12"/>
<stop offset="1" stop-color="#808080" stop-opacity="0.1"/>
</linearGradient>
<linearGradient id="paint1_linear" x1="53839.2" y1="95806" x2="53839.2" y2="45502.4" gradientUnits="userSpaceOnUse">
<stop stop-color="#808080" stop-opacity="0.25"/>
<stop offset="0.54" stop-color="#808080" stop-opacity="0.12"/>
<stop offset="1" stop-color="#808080" stop-opacity="0.1"/>
</linearGradient>
<linearGradient id="paint2_linear" x1="21511.1" y1="78114" x2="21511.1" y2="47392.8" gradientUnits="userSpaceOnUse">
<stop stop-color="#808080" stop-opacity="0.25"/>
<stop offset="0.54" stop-color="#808080" stop-opacity="0.12"/>
<stop offset="1" stop-color="#808080" stop-opacity="0.1"/>
</linearGradient>
<linearGradient id="paint3_linear" x1="174011" y1="101044" x2="174011" y2="55406.1" gradientUnits="userSpaceOnUse">
<stop stop-color="#808080" stop-opacity="0.25"/>
<stop offset="0.54" stop-color="#808080" stop-opacity="0.12"/>
<stop offset="1" stop-color="#808080" stop-opacity="0.1"/>
</linearGradient>
<clipPath id="clip0">
<rect width="466" height="276" fill="white"/>
</clipPath>
</defs>
</svg>
