<svg width="268" height="726" viewBox="0 0 268 726" fill="none" xmlns="http://www.w3.org/2000/svg">
<path d="M22.9194 657.143C22.9194 657.143 45.5848 659.657 54.7201 677.825C54.7201 677.825 43.211 682.453 25.2662 666.967L22.9194 657.143Z" fill="#13514E"/>
<path d="M20.6801 656.197C20.6801 656.197 2.41628 668.803 4.37471 688.74C4.37471 688.74 16.8566 687.453 23.9845 665.785L20.6801 656.197Z" fill="#13514E"/>
<path d="M15.3788 626.055C15.3788 626.055 28.1675 613.168 57.2987 643.813C57.2987 643.813 49.9096 652.807 34.744 647.854C19.5784 642.9 17.2932 635.17 15.3788 626.055Z" fill="#13514E"/>
<path d="M13.426 624.357C13.426 624.357 -4.12047 617.55 -16.4367 656.502C-16.4367 656.502 -5.58471 661.841 5.89693 651.546C17.3786 641.252 15.8894 633.361 13.426 624.357Z" fill="#13514E"/>
<path d="M11.3256 590.084C11.3256 590.084 28.6801 565.963 60.4371 594.939C60.4371 594.939 45.4177 617.312 12.653 600.228L11.3256 590.084Z" fill="#13514E"/>
<path d="M10.7544 546.923C10.7544 546.923 37.1838 524.937 64.4059 559.223C64.4059 559.223 45.6799 581.493 11.0624 557.387L10.7544 546.923Z" fill="#13514E"/>
<path d="M16.9226 507.644C16.9226 507.644 45.9525 488.728 72.9584 522.659C72.9584 522.659 45.9056 538.841 15.2172 514.009L16.9226 507.644Z" fill="#13514E"/>
<path d="M23.3742 469.627C23.3742 469.627 52.9911 449.682 78.6194 482.947C78.6194 482.947 46.9149 499.071 21.7429 475.716L23.3742 469.627Z" fill="#13514E"/>
<path d="M34.2308 437.24C34.2308 437.24 67.0112 410.134 91.1262 440.917C91.1262 440.917 57.8645 462.852 32.5254 443.605L34.2308 437.24Z" fill="#13514E"/>
<path d="M50.0551 400.251C50.0551 400.251 84.213 373.811 106.716 407.128C106.716 407.128 69.0986 427.896 48.4238 406.339L50.0551 400.251Z" fill="#13514E"/>
<path d="M67.692 368.124C67.692 368.124 105.954 344.933 128.748 364.389C128.748 364.389 88.7044 389.179 64.205 376.089L67.692 368.124Z" fill="#13514E"/>
<path d="M86.8718 338.338C86.8718 338.338 131.655 309.406 148.278 327.504C148.278 327.504 114.92 350.302 82.4572 344.867L86.8718 338.338Z" fill="#13514E"/>
<path d="M112.088 304.575C112.088 304.575 150.658 281.458 170.647 295.119C170.647 295.119 136.131 320.574 105.423 313.236L112.088 304.575Z" fill="#13514E"/>
<path d="M135.22 272.873C135.22 272.873 176.618 251.932 189.726 261.08C189.726 261.08 156.729 287.831 131.989 279.126L135.22 272.873Z" fill="#13514E"/>
<path d="M157.326 243.796C157.326 243.796 195.636 215.799 210.573 222.767C210.573 222.767 184.625 249.924 156.362 247.394L157.326 243.796Z" fill="#13514E"/>
<path d="M183.614 203.66C183.614 203.66 216.354 183.095 230.059 186.839C230.059 186.839 200.215 218.01 180.178 212.304L183.614 203.66Z" fill="#13514E"/>
<path d="M200.058 176.646L239.868 126.211C239.868 126.211 227.29 178.074 194.1 186.383L200.058 176.646Z" fill="#13514E"/>
<path d="M226.863 116.445C226.863 116.445 243.682 69.9355 242.107 65.361C242.107 65.361 249.05 109.636 221.06 137.433L226.863 116.445Z" fill="#13514E"/>
<path d="M10.5489 589.192C10.5489 589.192 -10.8738 567.341 -37.2019 599.716C-37.2019 599.716 -18.3981 620.11 11.021 599.386L10.5489 589.192Z" fill="#13514E"/>
<path d="M10.3512 545.175C10.3512 545.175 -17.224 523.243 -42.6556 557.58C-42.6556 557.58 -22.7687 579.812 10.5891 555.639L10.3512 545.175Z" fill="#13514E"/>
<path d="M14.8588 509.538C14.8588 509.538 -0.823728 478.641 -41.177 494.523C-41.177 494.523 -25.8399 522.065 13.1533 515.903L14.8588 509.538Z" fill="#13514E"/>
<path d="M22.613 469.423C22.613 469.423 6.93662 437.342 -31.8908 453.336C-31.8908 453.336 -12.4954 483.152 20.9816 475.512L22.613 469.423Z" fill="#13514E"/>
<path d="M33.9774 438.187C33.9774 438.187 28.1411 396.421 -10.7087 403.302C-10.7087 403.302 -0.992594 441.552 30.9054 444.034L33.9774 438.187Z" fill="#13514E"/>
<path d="M52.105 400.599C52.105 400.599 46.5442 358.21 6.74919 366.513C6.74919 366.513 18.8197 407.232 48.9341 406.069L52.105 400.599Z" fill="#13514E"/>
<path d="M71.0032 369.222C71.0032 369.222 75.9557 325.709 48.0098 314.206C48.0098 314.206 42.3433 359.971 65.1176 375.724L71.0032 369.222Z" fill="#13514E"/>
<path d="M87.5933 338.608C87.5933 338.608 98.6615 287.582 75.1338 279.37C75.1338 279.37 65.6932 317.842 82.9784 345.006L87.5933 338.608Z" fill="#13514E"/>
<path d="M114.966 303.801C114.966 303.801 119.035 259.972 97.5146 248.713C97.5146 248.713 89.4808 290.066 109.964 313.46L114.966 303.801Z" fill="#13514E"/>
<path d="M137.856 273.904C137.856 273.904 149.312 230.181 137.036 220.014C137.036 220.014 117.766 257.21 132.308 278.393L137.856 273.904Z" fill="#13514E"/>
<path d="M158.524 243.597C158.524 243.597 168.609 198.109 155.812 187.891C155.812 187.891 141.317 222.145 155.564 245.957L158.524 243.597Z" fill="#13514E"/>
<path d="M184.68 207.782C184.68 207.782 194.383 171.213 186.341 159.846C186.341 159.846 165.319 197.147 177.305 213.69L184.68 207.782Z" fill="#13514E"/>
<path d="M199.32 174.519L205.567 110.956C205.567 110.956 178.524 157.16 196.857 185.625L199.32 174.519Z" fill="#13514E"/>
<path d="M217.496 114.556C217.496 114.556 202.614 66.718 204.374 62.2831C204.374 62.2831 195.627 105.901 222.428 135.993L217.496 114.556Z" fill="#13514E"/>
<path d="M223.761 103.284C223.761 103.284 214.944 38.6335 205.172 30.9727C205.172 30.9727 235.487 57.1886 226.238 102.168L223.761 103.284Z" fill="#13514E"/>
<path d="M179.956 212.612L178.421 211.679C216.143 153.223 232.22 113.765 223.69 100.573L225.211 99.6896C234.253 113.673 218.604 152.721 179.956 212.612Z" fill="#13514E"/>
<path d="M83.1606 347.165L80.9201 345.673C84.671 340.395 88.6214 335.08 92.6624 329.876C127.819 284.599 158.829 242.027 180.323 208.718L182.743 208.266C161.21 241.634 130.04 286.12 94.8389 331.454C90.82 336.63 86.8905 341.916 83.1606 347.165Z" fill="#13514E"/>
<path d="M40.7324 713.233C40.4929 712.789 16.7257 668.051 9.85324 600.689C5.81082 561.252 8.29787 521.6 17.2217 483.208C28.3747 435.215 53.076 384.907 83.9422 341.473L85.3083 344.17C16.0275 441.659 7.16339 538.733 13.4164 600.281C20.1963 667.017 43.6819 711.268 43.9185 711.707L40.7324 713.233Z" fill="#13514E"/>
</svg>
