<svg width="163" height="350" viewBox="0 0 163 350" fill="none" xmlns="http://www.w3.org/2000/svg">
<path d="M81.2253 20.2604C81.2253 20.2604 139.067 53.7203 131.482 128.404C123.898 203.089 223.988 297.088 223.988 297.088C223.988 297.088 223.206 297.174 221.754 297.303C123.653 305.826 48.3606 211.004 79.0802 117.331C90.5122 82.5124 97.0803 43.4905 81.2253 20.2604Z" fill="#13514E"/>
<path d="M81.225 20.2604C81.225 20.2604 121.975 69.3541 108.468 121.932C94.9601 174.51 150.643 296.996 223.988 297.088" stroke="white" stroke-width="2" stroke-miterlimit="10"/>
<path d="M49.5083 226.793C49.5083 226.793 99.3263 204.549 116.577 249.991C133.828 295.434 230.891 276.368 230.891 276.368L229.426 278.031C164.587 350.867 84.2603 352.263 77.3162 280.529C74.6186 253.815 67.3985 228.243 49.5083 226.793Z" fill="#007A73"/>
<path d="M49.5088 226.793C49.5088 226.793 92.2963 224.893 98.8195 262.525C105.343 300.157 180.478 327.343 230.881 276.33" stroke="#13514E" stroke-width="2" stroke-miterlimit="10"/>
</svg>
