<svg width="175" height="310" viewBox="0 0 175 310" fill="none" xmlns="http://www.w3.org/2000/svg">
<path d="M71.6519 18.343C67.6711 18.415 62.4824 19.9204 58.4926 26.7742C50.7086 40.1744 58.6705 52.7718 51.7971 67.0018C49.9465 70.7793 47.3031 74.1042 44.0366 76.763C38.6315 81.1787 33.5351 82.623 28.3034 85.3372C21.6394 88.8156 16.2032 94.1609 12.649 100.73C8.74132 107.984 6.67161 116.116 6.61127 124.452C6.63297 131.44 8.16441 136.921 9.23258 142.854C10.5284 150.404 11.1421 158.03 11.0663 165.641C11.1197 169.363 10.7765 173.066 10.0424 176.689C9.06695 181.241 7.20993 185.994 5.38304 190.642L-10.8443 231.989C-13.0031 237.496 -15.1958 243.089 -16.4933 248.527C-17.9825 254.789 -18.2068 260.468 -18.4066 266.008C-18.834 277.951 -19.1888 290.368 -15.5255 297.671C-11.8622 304.973 -2.77835 305.134 5.3396 294.256C13.0621 283.906 16.7699 268.395 24.0873 257.098C35.6138 239.3 50.118 240.265 62.162 223.561C73.7118 207.534 76.5432 184.927 85.0265 165.432C91.0923 151.485 99.9333 139.564 106.662 125.963C116.373 106.354 120.905 84.5643 120.707 67.5079C120.508 50.4515 116.083 37.6328 110.306 27.2815C107.86 22.8974 105.085 18.8335 101.051 17.4616C96.7584 16.0013 91.6979 20.4021 87.0053 20.9008C81.6003 21.5135 77.0254 18.2309 71.6519 18.343Z" fill="#89A8A7"/>
<path opacity="0.5" d="M96.9121 17.5283C96.9121 17.5283 46.562 201.202 -9.89736 302.567" stroke="#13514E" stroke-width="2" stroke-miterlimit="10"/>
<path opacity="0.5" d="M58.085 27.6338C58.085 27.6338 84.4858 65.9382 65.0817 120.814" stroke="#13514E" stroke-width="2" stroke-miterlimit="10"/>
<path opacity="0.5" d="M10.6481 104.818C10.6481 104.818 62.7507 129.733 51.2798 160.68" stroke="#13514E" stroke-width="2" stroke-miterlimit="10"/>
<path opacity="0.5" d="M120.922 67.1598C120.922 67.1598 94.4367 80.3823 62.3344 128.97" stroke="#13514E" stroke-width="2" stroke-miterlimit="10"/>
<path opacity="0.5" d="M61.7756 223.803C61.7756 223.803 44.0152 231.523 41.3105 187.817" stroke="#13514E" stroke-width="2" stroke-miterlimit="10"/>
<path opacity="0.5" d="M-8.74368 230.6C-8.74368 230.6 22.9069 234.631 30.135 216.517" stroke="#13514E" stroke-width="2" stroke-miterlimit="10"/>
</svg>
