<svg width="262" height="415" viewBox="0 0 262 415" fill="none" xmlns="http://www.w3.org/2000/svg">
<path d="M197.462 145.543L198.924 102.992C183.295 90.2867 166.96 78.4733 149.997 67.6083L143.377 85.666L144.126 63.8799C123.017 50.6534 108.199 43.2317 108.199 43.2317C108.199 43.2317 105.991 129.777 132.496 204.092L181.552 228.115L139.712 222.296C143.344 230.626 147.497 238.718 152.147 246.526C199.286 325.084 263.185 373.347 294.87 354.324C326.555 335.301 314.027 256.196 266.888 177.637C252.274 153.283 231.469 131.115 209.718 112.114L197.462 145.543Z" fill="#007A73"/>
<path d="M254.354 252.31L265.595 226.359C259.019 214.707 251.791 203.435 243.944 192.597L235.464 202.153L241.22 188.866C231.383 175.561 224.025 167.373 224.025 167.373C224.025 167.373 201.635 220.34 199.967 272.723L224.458 299.492L200.005 285.73C200.227 291.762 200.828 297.774 201.806 303.73C211.863 363.749 239.642 409.11 263.852 405.047C288.062 400.984 299.534 349.036 289.477 289.017C286.359 270.411 278.883 251.652 270.052 234.62L254.354 252.31Z" fill="#13514E"/>
</svg>
