<svg width="156" height="297" viewBox="0 0 156 297" fill="none" xmlns="http://www.w3.org/2000/svg">
<path d="M71.8831 288.153C71.8831 288.153 19.8798 246.19 38.8666 173.563C57.8534 100.936 -26.579 -7.34624 -26.579 -7.34624C-26.579 -7.34624 -25.7934 -7.31135 -24.3386 -7.21583C73.9052 -0.540584 133.709 104.739 88.9406 192.569C72.2866 225.213 59.7917 262.759 71.8831 288.153Z" fill="#13514E"/>
<path d="M71.8833 288.153C71.8833 288.153 39.1731 233.373 60.6109 183.5C82.0487 133.627 45.8785 4.03133 -26.5789 -7.34627" stroke="white" stroke-width="2" stroke-miterlimit="10"/>
<path d="M135.005 88.9615C135.005 88.9615 82.3575 103.274 72.3052 55.718C62.2529 8.16175 -36.5876 12.0644 -36.5876 12.0644L-34.8849 10.6465C40.391 -51.3443 119.975 -40.3626 115.798 31.5856C114.352 58.3972 117.551 84.7749 135.005 88.9615Z" fill="#007A73"/>
<path d="M135.005 88.9615C135.005 88.9615 92.4346 84.2545 91.7802 46.0669C91.1259 7.87931 21.0694 -30.5455 -36.5835 12.1038" stroke="#13514E" stroke-width="2" stroke-miterlimit="10"/>
</svg>
